<svg width="525" height="352" viewBox="0 0 525 352" fill="none" xmlns="http://www.w3.org/2000/svg">
<g clip-path="url(#clip0_7_416)">
<path d="M400.966 263.983L364.064 249.402V236.866L377.215 236.8C379.256 236.79 381.242 236.207 382.894 235.134C384.546 234.061 385.781 232.552 386.427 230.818L395.666 205.994C396.155 204.679 396.289 203.278 396.055 201.908C395.822 200.538 395.228 199.237 394.323 198.112C393.418 196.987 392.228 196.071 390.85 195.44C389.472 194.808 387.946 194.479 386.399 194.479H364.064V182.813H392.103C394.313 182.813 396.458 182.142 398.187 180.909C399.916 179.676 401.128 177.954 401.623 176.025L407.985 151.236C408.314 149.954 408.316 148.622 407.991 147.339C407.666 146.057 407.022 144.856 406.107 143.827C405.192 142.798 404.03 141.967 402.707 141.395C401.384 140.824 399.934 140.527 398.465 140.527H364.064V137.611C364.064 136.845 363.895 136.087 363.568 135.379C363.241 134.671 362.761 134.028 362.156 133.487C361.551 132.945 360.834 132.516 360.044 132.223C359.253 131.929 358.407 131.779 357.551 131.779C356.696 131.779 355.849 131.929 355.059 132.223C354.269 132.516 353.551 132.945 352.947 133.487C352.342 134.028 351.862 134.671 351.535 135.379C351.208 136.087 351.039 136.845 351.039 137.611V140.527H120.401V137.611C120.401 136.064 119.715 134.581 118.494 133.487C117.273 132.393 115.616 131.779 113.889 131.779C112.162 131.779 110.506 132.393 109.284 133.487C108.063 134.581 107.377 136.064 107.377 137.611V140.527H80.0301C78.5614 140.527 77.1115 140.824 75.7884 141.395C74.4654 141.967 73.3032 142.798 72.3883 143.827C71.4735 144.856 70.8295 146.057 70.5043 147.339C70.1792 148.622 70.1812 149.954 70.5103 151.236L76.8727 176.025C77.3679 177.954 78.579 179.676 80.3082 180.909C82.0373 182.142 84.1823 182.813 86.3926 182.813H107.377V194.479H92.0964C90.5569 194.479 89.0392 194.805 87.6671 195.43C86.295 196.055 85.1072 196.962 84.2008 198.076C83.2944 199.191 82.695 200.482 82.4513 201.843C82.2077 203.204 82.3268 204.598 82.799 205.911L92.2287 232.121C92.8655 233.891 94.1154 235.434 95.7971 236.524C97.4788 237.615 99.5047 238.197 101.581 238.187L107.377 238.158V249.402L77.5298 263.983C76.247 263.983 74.9768 264.21 73.7917 264.649C72.6065 265.089 71.5297 265.733 70.6226 266.546C69.7156 267.358 68.9961 268.323 68.5052 269.384C68.0143 270.446 67.7616 271.583 67.7616 272.732C67.7616 275.053 68.7907 277.278 70.6226 278.919C72.4545 280.559 74.9391 281.481 77.5298 281.481H107.377V345.639C107.377 347.186 108.063 348.67 109.284 349.763C110.506 350.857 112.162 351.472 113.889 351.472C115.616 351.472 117.273 350.857 118.494 349.763C119.715 348.67 120.401 347.186 120.401 345.639V281.481H351.039V345.639C351.039 347.186 351.725 348.67 352.947 349.763C354.168 350.857 355.824 351.472 357.551 351.472C359.279 351.472 360.935 350.857 362.156 349.763C363.377 348.67 364.064 347.186 364.064 345.639V281.481H400.966C403.556 281.481 406.041 280.559 407.873 278.919C409.705 277.278 410.734 275.053 410.734 272.732C410.734 271.583 410.481 270.446 409.99 269.384C409.499 268.323 408.78 267.358 407.873 266.546C406.966 265.733 405.889 265.089 404.704 264.649C403.519 264.21 402.248 263.983 400.966 263.983ZM120.401 182.813H351.039V194.479H120.401V182.813ZM120.401 249.402V238.092L351.039 236.932V249.402H120.401Z" fill="#E6E6E6"/>
<path d="M374.282 263.942C378.339 234.726 398.555 205.939 429.665 196.432C417.396 226.503 417.399 259.492 429.673 289.562C434.453 301.143 441.116 313.579 436.62 325.251C433.822 332.514 426.978 338.071 419.327 341.545C411.676 345.019 403.185 346.675 394.801 348.298L393.151 349.521C379.84 322.601 370.226 293.158 374.282 263.942Z" fill="#E6E6E6"/>
<path d="M429.974 196.984C412.041 214.969 400.408 238.201 397.793 262.236C397.227 267.432 397.159 272.747 398.427 277.869C399.696 282.993 402.458 287.293 406.379 291.151C409.963 294.678 414.085 297.914 416.65 302.16C419.353 306.635 419.457 311.72 417.606 316.474C415.342 322.29 410.879 327.031 406.335 331.531C401.29 336.528 395.962 341.646 393.817 348.271C393.557 349.073 392.182 348.665 392.441 347.864C396.173 336.339 408.664 329.792 414.621 319.412C417.401 314.568 418.568 308.944 415.962 303.831C413.683 299.36 409.435 296.02 405.772 292.477C401.925 288.757 398.976 284.675 397.456 279.749C395.902 274.711 395.739 269.382 396.153 264.196C397.191 252.441 400.287 240.906 405.326 230.013C410.999 217.552 419.012 206.052 429.015 196.011C429.635 195.39 430.589 196.367 429.974 196.984Z" fill="white"/>
<path d="M398.183 254.383C393.706 253.41 389.761 251.043 387.053 247.705C384.345 244.367 383.05 240.276 383.399 236.162C383.473 235.329 384.92 235.393 384.846 236.226C384.513 240.057 385.72 243.868 388.249 246.971C390.778 250.075 394.462 252.267 398.637 253.151C399.544 253.344 399.084 254.575 398.183 254.383Z" fill="white"/>
<path d="M404.298 289.577C412.384 285.253 418.353 278.358 421.015 270.268C421.278 269.466 422.653 269.874 422.391 270.675C419.603 279.089 413.375 286.253 404.95 290.736C404.147 291.163 403.5 290.001 404.298 289.577Z" fill="white"/>
<path d="M412.344 218.781C413.988 219.481 415.801 219.804 417.619 219.721C419.438 219.639 421.205 219.153 422.762 218.307C423.559 217.872 424.205 219.033 423.413 219.466C421.688 220.393 419.736 220.928 417.727 221.023C415.718 221.118 413.714 220.772 411.889 220.013C411.711 219.955 411.564 219.837 411.478 219.685C411.392 219.533 411.375 219.357 411.429 219.194C411.49 219.031 411.62 218.896 411.791 218.819C411.963 218.742 412.161 218.728 412.344 218.781Z" fill="white"/>
<path d="M524.492 248.615C524.003 248.9 523.514 249.184 523.024 249.48C516.472 253.339 510.282 257.668 504.513 262.425C504.06 262.786 503.608 263.158 503.168 263.531C489.405 275.123 478.165 288.904 470.019 304.171C466.784 310.249 464.07 316.539 461.9 322.985C458.905 331.889 456.447 341.756 450.517 349.039C449.908 349.805 449.246 350.536 448.536 351.229H394.944C394.822 351.174 394.699 351.13 394.577 351.075L392.437 351.163C392.523 350.824 392.62 350.473 392.706 350.134C392.755 349.937 392.816 349.739 392.865 349.542C392.902 349.411 392.939 349.279 392.963 349.159C392.975 349.115 392.988 349.071 393 349.039C393.024 348.918 393.061 348.809 393.086 348.699C393.623 346.739 394.178 344.779 394.748 342.818C394.748 342.807 394.748 342.807 394.76 342.796C399.15 327.87 404.97 313.14 413.101 299.67C413.346 299.265 413.59 298.849 413.859 298.443C417.562 292.39 421.811 286.618 426.564 281.184C429.177 278.216 431.956 275.369 434.891 272.653C442.488 265.648 451.269 259.758 460.91 255.197C480.131 246.107 502.385 242.625 522.927 248.177C523.452 248.319 523.966 248.462 524.492 248.615Z" fill="#E6E6E6"/>
<path d="M524.371 249.224C497.964 253.914 473.058 266.191 454.813 283.971C450.869 287.815 447.241 292.022 444.811 296.795C442.379 301.57 441.694 306.493 442.231 311.688C442.722 316.437 443.838 321.243 443.032 326.016C442.182 331.047 438.846 335.163 434.173 337.961C428.456 341.384 421.706 342.763 415.052 343.906C407.665 345.175 399.97 346.388 393.805 350.521C393.058 351.022 392.234 349.954 392.98 349.454C403.706 342.264 418.081 343.773 429.815 338.697C435.291 336.328 440.002 332.468 441.359 326.98C442.545 322.181 441.399 317.224 440.855 312.419C440.285 307.374 440.674 302.525 442.771 297.773C444.917 292.912 448.369 288.569 452.187 284.652C460.917 275.826 471.143 268.285 482.489 262.305C495.395 255.415 509.523 250.553 524.26 247.93C525.172 247.768 525.277 249.063 524.371 249.224Z" fill="white"/>
<path d="M460.403 277.911C457.483 274.72 455.925 270.703 456.006 266.577C456.088 262.452 457.804 258.487 460.848 255.39C461.467 254.765 462.579 255.597 461.96 256.222C459.119 259.101 457.521 262.795 457.454 266.637C457.387 270.478 458.855 274.215 461.594 277.172C462.188 277.816 460.994 278.551 460.403 277.911Z" fill="white"/>
<path d="M441.628 309.309C450.991 310.217 460.392 307.931 467.956 302.906C468.704 302.408 469.529 303.475 468.78 303.973C460.898 309.188 451.11 311.55 441.37 310.586C440.441 310.494 440.705 309.218 441.628 309.309Z" fill="white"/>
<path d="M495.642 257.121C496.485 258.567 497.715 259.802 499.223 260.717C500.73 261.631 502.467 262.196 504.279 262.361C505.208 262.443 504.943 263.719 504.02 263.638C502.02 263.447 500.102 262.821 498.434 261.814C496.766 260.807 495.398 259.45 494.451 257.86C494.348 257.717 494.309 257.544 494.343 257.376C494.377 257.208 494.481 257.059 494.634 256.957C494.793 256.86 494.987 256.823 495.176 256.854C495.365 256.884 495.532 256.98 495.642 257.121Z" fill="white"/>
<path d="M12.5804 289.885C15.4313 269.353 29.6389 249.122 51.5022 242.44C42.8799 263.574 42.8818 286.758 51.5075 307.891C54.867 316.03 59.5499 324.769 56.3898 332.972C54.4236 338.076 49.6136 341.982 44.237 344.423C38.8601 346.865 32.8928 348.029 27.0002 349.169L25.8405 350.028C16.4861 331.11 9.72943 310.418 12.5804 289.885Z" fill="#E6E6E6"/>
<path d="M51.7192 242.828C38.987 255.606 31.0736 271.651 29.1029 288.686C28.7055 292.338 28.6572 296.073 29.5485 299.673C30.4474 303.175 32.377 306.398 35.137 309.007C37.6559 311.486 40.5529 313.76 42.3552 316.744C44.2549 319.889 44.3279 323.463 43.0273 326.804C41.4361 330.891 38.2999 334.223 35.1066 337.386C31.561 340.897 27.816 344.494 26.3089 349.15C26.1263 349.714 25.1597 349.427 25.3421 348.864C27.9643 340.764 36.743 336.163 40.9296 328.868C42.8831 325.464 43.7031 321.512 41.8717 317.919C40.2702 314.776 37.285 312.429 34.7104 309.939C32.007 307.324 29.9342 304.456 28.8664 300.994C27.774 297.453 27.6593 293.708 27.9507 290.064C28.6804 281.803 30.8556 273.696 34.3969 266.04C38.3844 257.283 44.0151 249.201 51.0454 242.144C51.4808 241.708 52.1516 242.395 51.7192 242.828Z" fill="white"/>
<path d="M29.377 283.167C26.2308 282.483 23.4586 280.82 21.5554 278.474C19.6522 276.128 18.742 273.253 18.9872 270.361C19.0391 269.777 20.0564 269.821 20.0044 270.407C19.7704 273.099 20.6186 275.777 22.3958 277.959C24.1731 280.14 26.7623 281.68 29.6962 282.301C30.3336 282.437 30.0107 283.302 29.377 283.167Z" fill="white"/>
<path d="M33.6751 307.901C39.3575 304.862 43.5523 300.017 45.423 294.331C45.6078 293.767 46.5744 294.054 46.3898 294.617C44.4308 300.53 40.054 305.565 34.133 308.716C33.5684 309.016 33.1136 308.199 33.6751 307.901Z" fill="white"/>
<path d="M39.329 258.147C40.4847 258.639 41.7588 258.866 43.0367 258.808C44.3147 258.75 45.5565 258.408 46.6507 257.814C47.2107 257.508 47.665 258.324 47.1086 258.629C45.8963 259.28 44.5243 259.656 43.1125 259.723C41.7007 259.79 40.2921 259.546 39.0097 259.013C38.8842 258.972 38.7808 258.889 38.7207 258.782C38.6605 258.675 38.6481 258.552 38.6859 258.437C38.7288 258.323 38.8205 258.228 38.9409 258.174C39.0613 258.119 39.2007 258.11 39.329 258.147Z" fill="white"/>
<path d="M118.145 279.114C117.801 279.314 117.457 279.514 117.113 279.722C112.509 282.434 108.158 285.476 104.104 288.819C103.786 289.073 103.468 289.335 103.158 289.596C93.4864 297.743 85.5873 307.428 79.8626 318.157C77.5889 322.429 75.6814 326.849 74.1566 331.38C72.0511 337.637 70.3241 344.571 66.1564 349.69C65.7282 350.228 65.2633 350.742 64.7642 351.229H27.1005C27.0149 351.19 26.9289 351.16 26.8429 351.121L25.3391 351.183C25.3995 350.944 25.4679 350.698 25.5283 350.459C25.5627 350.321 25.6055 350.182 25.6399 350.044C25.6655 349.951 25.6916 349.859 25.7088 349.774C25.7172 349.743 25.726 349.713 25.7344 349.69C25.7516 349.605 25.7776 349.528 25.7948 349.451C26.1728 348.073 26.5624 346.696 26.9633 345.318C26.9633 345.31 26.9633 345.31 26.9717 345.303C30.0569 334.812 34.147 324.461 39.8614 314.994C40.0334 314.709 40.205 314.417 40.3943 314.132C42.9965 309.878 45.9825 305.821 49.3226 302.003C51.1591 299.917 53.1122 297.916 55.1746 296.007C60.514 291.084 66.6847 286.945 73.4605 283.739C86.9691 277.351 102.608 274.904 117.045 278.806C117.414 278.906 117.775 279.006 118.145 279.114Z" fill="#E6E6E6"/>
<path d="M118.06 279.542C99.305 282.878 82.2005 291.422 69.1759 303.961C66.4038 306.662 63.8542 309.619 62.1462 312.974C60.5094 316.255 59.8836 319.869 60.3336 323.44C60.6786 326.777 61.463 330.155 60.8961 333.51C60.2986 337.045 57.9547 339.938 54.6705 341.904C50.6523 344.31 45.9085 345.279 41.2327 346.082C36.0412 346.974 30.633 347.827 26.3002 350.731C25.7752 351.083 25.1962 350.333 25.7204 349.982C33.2589 344.928 43.3609 345.989 51.6077 342.422C55.4558 340.757 58.7671 338.044 59.7204 334.187C60.554 330.815 59.7485 327.33 59.3666 323.954C58.9656 320.409 59.2389 317.001 60.7132 313.661C62.2213 310.245 64.6472 307.193 67.33 304.439C73.4656 298.237 80.6519 292.937 88.6256 288.734C97.6963 283.892 107.625 280.476 117.982 278.632C118.623 278.519 118.697 279.429 118.06 279.542Z" fill="white"/>
<path d="M73.1044 299.703C71.0522 297.46 69.957 294.637 70.0143 291.737C70.0716 288.838 71.2777 286.051 73.4172 283.875C73.8518 283.436 74.6339 284.02 74.1987 284.46C72.2022 286.483 71.0791 289.079 71.0319 291.779C70.9847 294.479 72.0166 297.105 73.9414 299.183C74.359 299.635 73.5197 300.152 73.1044 299.703Z" fill="white"/>
<path d="M59.9099 321.769C66.4897 322.406 73.0962 320.8 78.4121 317.269C78.9384 316.918 79.5175 317.668 78.9918 318.018C73.4524 321.683 66.5735 323.343 59.728 322.666C59.0756 322.601 59.261 321.704 59.9099 321.769Z" fill="white"/>
<path d="M97.8698 285.092C98.462 286.108 99.3265 286.976 100.386 287.619C101.445 288.261 102.666 288.658 103.94 288.774C104.593 288.831 104.406 289.728 103.758 289.671C102.352 289.538 101.004 289.098 99.8316 288.39C98.6593 287.682 97.6984 286.728 97.0328 285.611C96.9602 285.51 96.9331 285.389 96.957 285.271C96.9809 285.153 97.054 285.048 97.1614 284.976C97.2726 284.908 97.4094 284.882 97.5421 284.903C97.6747 284.925 97.7925 284.993 97.8698 285.092Z" fill="white"/>
<path d="M200.365 340.383L190.657 342.898L175.204 310.558L189.532 306.845L200.365 340.383Z" fill="#EFBFC6"/>
<path d="M223.583 223.178L213.567 232.747C213.567 232.747 160.818 253.678 160.818 264.443C160.818 275.207 173.504 321.854 178.846 325.442C182.063 327.615 180.609 329.956 182.205 333.27L200.88 327.236C200.88 327.236 199.545 323.648 200.88 321.854C202.216 320.06 200.88 318.863 200.88 318.863C200.88 318.863 198.877 319.462 199.545 317.667C200.213 315.873 200.213 315.275 199.545 314.677C198.877 314.079 196.874 308.697 196.874 308.697C196.874 308.697 197.542 287.168 188.194 279.393C188.194 279.393 231.595 268.031 236.937 260.256C242.279 252.482 243.614 224.374 243.614 224.374L223.583 223.178Z" fill="#2F2E41"/>
<path d="M204.323 345.34L171.974 351.32L171.889 350.954C171.2 347.963 171.866 344.849 173.739 342.298C175.613 339.746 178.542 337.966 181.881 337.349L181.882 337.348L186.866 332.241L198.816 334.218L201.64 333.696L204.323 345.34Z" fill="#2F2E41"/>
<path d="M234.389 303L222 310.439L247.702 337.039L256.096 331.999L234.389 303Z" fill="#EFBFC6"/>
<path d="M254.187 206.694C247.569 194.197 267.74 231.149 265.07 242.592C262.984 251.528 224.035 279.979 224.035 279.979C235.771 284.457 243.286 304.916 243.286 304.916C243.286 304.916 247.206 309.372 248.06 309.732C248.915 310.092 249.141 310.655 249.191 312.546C249.242 314.436 250.9 313.266 250.9 313.266C250.9 313.266 252.609 313.986 252.031 316.079C251.453 318.172 254.067 321.143 254.067 321.143L239.63 333.198C236.875 330.564 236.506 327.209 232.657 326.141C226.274 324.385 196.694 284.346 192.622 274.218C188.551 264.09 230.264 228.392 230.264 228.392L233.807 210.723L254.187 206.694Z" fill="#2F2E41"/>
<path d="M261.621 341.979L230.542 352L230.401 351.648C229.246 348.775 229.413 345.608 230.864 342.845C232.316 340.081 234.934 337.948 238.142 336.913L238.143 336.913L242.269 331.225L254.411 331.667L257.124 330.792L261.621 341.979Z" fill="#2F2E41"/>
<path d="M230.503 147L221.507 153.136L197.609 158.804C197.609 158.804 206.172 212.63 202.13 216.25C198.089 219.87 201.734 219.967 200.922 224.669C200.11 229.371 198.136 239.011 198.136 239.011C225.416 251.944 248.934 252.291 267.826 237.157C268.067 236.22 267.945 235.238 267.478 234.373C267.011 233.508 266.228 232.812 265.258 232.4C261.742 230.729 268.5 222.93 265.626 221.626C262.753 220.322 266.794 209.01 266.794 209.01L275.553 171.976L252.257 155.651L248.714 148.005L230.503 147Z" fill="#177326"/>
<path d="M241.728 195.098C243.447 195.098 244.841 193.85 244.841 192.311C244.841 190.771 243.447 189.523 241.728 189.523C240.009 189.523 238.615 190.771 238.615 192.311C238.615 193.85 240.009 195.098 241.728 195.098Z" fill="#F2F2F2"/>
<path d="M239.713 143.585C249.541 143.585 257.508 136.45 257.508 127.647C257.508 118.845 249.541 111.709 239.713 111.709C229.885 111.709 221.918 118.845 221.918 127.647C221.918 136.45 229.885 143.585 239.713 143.585Z" fill="#EFBFC6"/>
<path opacity="0.1" d="M265.626 190.087L268.567 192.063L270.038 182.843L265.626 190.087Z" fill="black"/>
<path d="M199.018 158.752C199.018 158.752 195.342 158.093 193.136 164.02C190.93 169.948 179.857 201.16 179.857 205.112C179.857 209.063 233.214 217.678 233.214 217.678L227.972 201.21L203.735 194.419L199.018 158.752Z" fill="#177326"/>
<path d="M235.55 215.236C240.293 215.236 244.138 211.793 244.138 207.545C244.138 203.296 240.293 199.853 235.55 199.853C230.807 199.853 226.962 203.296 226.962 207.545C226.962 211.793 230.807 215.236 235.55 215.236Z" fill="#EFBFC6"/>
<path opacity="0.1" d="M205.314 186.581L205.986 194.739L227.321 204.768L208.345 193.368L205.314 186.581Z" fill="black"/>
<path d="M255.517 183.369H255.24V176.579C255.24 176.062 255.126 175.551 254.906 175.074C254.685 174.598 254.362 174.164 253.955 173.799C253.547 173.434 253.063 173.145 252.531 172.947C251.999 172.75 251.428 172.648 250.852 172.648H234.788C234.212 172.648 233.641 172.75 233.109 172.947C232.577 173.145 232.093 173.434 231.685 173.799C231.278 174.164 230.955 174.598 230.734 175.074C230.513 175.551 230.4 176.062 230.4 176.579V213.833C230.4 214.349 230.513 214.86 230.734 215.337C230.955 215.814 231.278 216.247 231.685 216.612C232.093 216.977 232.577 217.267 233.109 217.464C233.641 217.662 234.212 217.764 234.788 217.764H250.852C251.428 217.764 251.999 217.662 252.531 217.464C253.063 217.267 253.547 216.977 253.955 216.612C254.362 216.247 254.685 215.814 254.906 215.337C255.126 214.86 255.24 214.349 255.24 213.833V188.203H255.517V183.369Z" fill="#F0F0F0"/>
<path d="M275.553 171.976C275.553 171.976 277.759 173.293 279.229 179.22C280.7 185.148 290.259 207.54 286.583 212.808C282.906 218.077 281.821 223.7 269.32 215.797L252.023 201.612L264.523 191.075L269.67 194.368L275.553 171.976Z" fill="#177326"/>
<path d="M243.016 189.253C245.047 189.253 246.693 187.778 246.693 185.96C246.693 184.141 245.047 182.667 243.016 182.667C240.986 182.667 239.34 184.141 239.34 185.96C239.34 187.778 240.986 189.253 243.016 189.253Z" fill="#25B93D"/>
<path d="M253.659 200.866C258.403 200.866 262.248 197.422 262.248 193.174C262.248 188.926 258.403 185.482 253.659 185.482C248.916 185.482 245.071 188.926 245.071 193.174C245.071 197.422 248.916 200.866 253.659 200.866Z" fill="#EFBFC6"/>
<path opacity="0.1" d="M202.349 212.334L228.848 216.778L203.048 217.665L202.349 212.334Z" fill="black"/>
<path d="M255.38 117.118C255.38 117.118 260.014 109.185 249.821 108.464C249.821 108.464 241.131 101.404 232.273 107.174C232.273 107.174 227.442 107.174 224.8 112.07C224.8 112.07 221.001 110.78 220.166 114.234C220.166 114.234 217.385 121.446 220.166 127.936C222.946 134.427 223.87 135.148 223.87 135.148C223.87 135.148 221.919 127.093 233.039 126.372C244.16 125.651 254.362 119.411 255.289 127.344C256.216 135.277 257.235 131.694 257.235 131.694C257.235 131.694 266.037 120.364 255.38 117.118Z" fill="#2F2E41"/>
<path d="M428.216 100.002H284.157C281.949 100.002 279.831 100.788 278.269 102.187C276.707 103.586 275.83 105.483 275.83 107.461V138.492C275.83 140.47 276.707 142.367 278.269 143.766C279.831 145.164 281.949 145.95 284.157 145.95H286.272V151.557C286.272 151.897 286.384 152.229 286.595 152.512C286.806 152.795 287.106 153.015 287.457 153.146C287.808 153.276 288.194 153.31 288.567 153.243C288.939 153.177 289.282 153.013 289.55 152.773L297.167 145.95H428.216C430.425 145.95 432.543 145.164 434.105 143.766C435.666 142.367 436.544 140.47 436.544 138.492V107.461C436.544 106.481 436.328 105.512 435.91 104.607C435.491 103.702 434.878 102.88 434.105 102.187C433.331 101.494 432.413 100.945 431.403 100.57C430.393 100.195 429.31 100.002 428.216 100.002Z" fill="#3F3D56"/>
<path d="M428.216 142.165H284.157C283.07 142.164 282.027 141.777 281.258 141.088C280.489 140.4 280.057 139.466 280.056 138.492V107.461C280.057 106.487 280.489 105.553 281.258 104.864C282.027 104.176 283.07 103.788 284.157 103.787H393.57C403.843 103.798 413.692 107.458 420.956 113.964C428.22 120.47 432.306 129.291 432.318 138.492C432.316 139.466 431.884 140.4 431.115 141.088C430.346 141.777 429.304 142.164 428.216 142.165Z" fill="white"/>
<path d="M387.125 110.574H325.551C324.251 110.574 323.197 111.519 323.197 112.683V113.345C323.197 114.51 324.251 115.454 325.551 115.454H387.125C388.425 115.454 389.48 114.51 389.48 113.345V112.683C389.48 111.519 388.425 110.574 387.125 110.574Z" fill="#4F8646"/>
<path d="M400.064 120.333H312.612C311.312 120.333 310.258 121.277 310.258 122.442V123.104C310.258 124.268 311.312 125.213 312.612 125.213H400.064C401.364 125.213 402.418 124.268 402.418 123.104V122.442C402.418 121.277 401.364 120.333 400.064 120.333Z" fill="#E6E6E6"/>
<path d="M400.064 130.092H312.612C311.312 130.092 310.258 131.036 310.258 132.201V132.863C310.258 134.027 311.312 134.971 312.612 134.971H400.064C401.364 134.971 402.418 134.027 402.418 132.863V132.201C402.418 131.036 401.364 130.092 400.064 130.092Z" fill="#E6E6E6"/>
<path d="M518.509 0H406.221C405.368 -6.38285e-07 404.524 0.15037 403.737 0.442527C402.949 0.734684 402.234 1.16291 401.631 1.70274C401.028 2.24258 400.55 2.88346 400.224 3.58879C399.898 4.29412 399.73 5.05009 399.73 5.81354V30.001C399.73 30.7645 399.898 31.5204 400.224 32.2258C400.55 32.9311 401.028 33.572 401.631 34.1118C402.234 34.6516 402.949 35.0799 403.737 35.372C404.524 35.6642 405.368 35.8145 406.221 35.8145H407.869V40.1844C407.869 40.4496 407.957 40.7088 408.121 40.9293C408.286 41.1498 408.519 41.3216 408.793 41.4231C409.066 41.5245 409.367 41.5511 409.658 41.4994C409.948 41.4476 410.215 41.3199 410.424 41.1324L416.362 35.8145H518.509C519.362 35.8145 520.206 35.6642 520.993 35.372C521.781 35.0799 522.496 34.6516 523.099 34.1118C523.702 33.572 524.18 32.9311 524.506 32.2258C524.832 31.5204 525 30.7645 525 30.001V5.81354C525 5.05009 524.832 4.29412 524.506 3.58879C524.18 2.88346 523.702 2.24258 523.099 1.70274C522.496 1.16291 521.781 0.734684 520.993 0.442527C520.206 0.15037 519.362 -6.38285e-07 518.509 0Z" fill="#F2F2F2"/>
<path d="M518.509 32.8644H406.221C405.373 32.8636 404.561 32.5616 403.961 32.0249C403.362 31.4881 403.025 30.7603 403.024 30.0011V5.81352C403.025 5.05438 403.362 4.32657 403.961 3.78978C404.561 3.25298 405.373 2.95104 406.221 2.9502H491.504C499.511 2.95836 507.188 5.81099 512.85 10.8823C518.512 15.9535 521.697 22.8293 521.706 30.0011C521.705 30.7603 521.368 31.4881 520.769 32.0249C520.169 32.5617 519.357 32.8636 518.509 32.8644Z" fill="white"/>
<path d="M486.192 8.24048H438.774C437.601 8.24048 436.65 9.09188 436.65 10.1421V10.1421C436.65 11.1924 437.601 12.0438 438.774 12.0438H486.192C487.365 12.0438 488.315 11.1924 488.315 10.1421C488.315 9.09188 487.365 8.24048 486.192 8.24048Z" fill="#F2F2F2"/>
<path d="M496.278 15.8472H428.688C427.516 15.8472 426.565 16.6986 426.565 17.7488V17.7488C426.565 18.7991 427.516 19.6505 428.688 19.6505H496.278C497.45 19.6505 498.401 18.7991 498.401 17.7488C498.401 16.6986 497.45 15.8472 496.278 15.8472Z" fill="#F2F2F2"/>
<path d="M496.278 23.4539H428.688C427.516 23.4539 426.565 24.3053 426.565 25.3555V25.3555C426.565 26.4058 427.516 27.2572 428.688 27.2572H496.278C497.45 27.2572 498.401 26.4058 498.401 25.3555C498.401 24.3053 497.45 23.4539 496.278 23.4539Z" fill="#F2F2F2"/>
<path d="M267.314 39.856H379.602C380.455 39.856 381.299 40.0063 382.086 40.2985C382.874 40.5906 383.589 41.0189 384.192 41.5587C384.795 42.0985 385.273 42.7394 385.599 43.4447C385.925 44.1501 386.093 44.906 386.093 45.6695V69.857C386.093 70.6204 385.925 71.3764 385.599 72.0817C385.273 72.787 384.795 73.4279 384.192 73.9678C383.589 74.5076 382.874 74.9358 382.086 75.228C381.299 75.5201 380.455 75.6705 379.602 75.6705H377.954V80.0404C377.954 80.3055 377.866 80.5648 377.702 80.7852C377.537 81.0057 377.303 81.1775 377.03 81.279C376.756 81.3805 376.455 81.407 376.165 81.3553C375.875 81.3036 375.608 81.1759 375.399 80.9884L369.461 75.6705H267.314C266.461 75.6705 265.617 75.5201 264.83 75.228C264.042 74.9358 263.327 74.5076 262.724 73.9678C262.121 73.4279 261.643 72.787 261.317 72.0817C260.991 71.3764 260.823 70.6204 260.823 69.857V45.6695C260.823 44.906 260.991 44.1501 261.317 43.4447C261.643 42.7394 262.121 42.0985 262.724 41.5587C263.327 41.0189 264.042 40.5906 264.83 40.2985C265.617 40.0063 266.461 39.856 267.314 39.856Z" fill="#F2F2F2"/>
<path d="M264.117 69.8571C264.126 62.6853 267.311 55.8095 272.973 50.7382C278.635 45.667 286.312 42.8143 294.319 42.8062H379.602C380.45 42.807 381.262 43.1089 381.862 43.6457C382.461 44.1825 382.798 44.9103 382.799 45.6695V69.857C382.798 70.6162 382.461 71.344 381.862 71.8808C381.262 72.4176 380.45 72.7195 379.602 72.7204H267.314C266.466 72.7195 265.654 72.4176 265.054 71.8808C264.455 71.344 264.118 70.6162 264.117 69.8571Z" fill="white"/>
<path d="M299.631 51.8997L347.049 51.8997C348.222 51.8997 349.173 51.0483 349.173 49.998C349.173 48.9477 348.222 48.0963 347.049 48.0963L299.631 48.0963C298.458 48.0963 297.507 48.9477 297.507 49.998C297.507 51.0483 298.458 51.8997 299.631 51.8997Z" fill="#F2F2F2"/>
<path d="M289.545 59.5063L357.135 59.5063C358.307 59.5063 359.258 58.655 359.258 57.6047V57.6047C359.258 56.5544 358.307 55.703 357.135 55.703L289.545 55.703C288.373 55.703 287.422 56.5544 287.422 57.6047C287.422 58.655 288.373 59.5063 289.545 59.5063Z" fill="#F2F2F2"/>
<path d="M289.545 67.113L357.135 67.113C358.307 67.113 359.258 66.2616 359.258 65.2114C359.258 64.1611 358.307 63.3097 357.135 63.3097L289.545 63.3097C288.373 63.3097 287.422 64.1611 287.422 65.2114C287.422 66.2616 288.373 67.113 289.545 67.113Z" fill="#F2F2F2"/>
<path d="M466.966 351.964H0.646152C0.474781 351.964 0.310431 351.904 0.189253 351.795C0.0680755 351.686 0 351.539 0 351.386C0 351.232 0.0680755 351.085 0.189253 350.977C0.310431 350.868 0.474781 350.807 0.646152 350.807H466.966C467.137 350.807 467.301 350.868 467.423 350.977C467.544 351.085 467.612 351.232 467.612 351.386C467.612 351.539 467.544 351.686 467.423 351.795C467.301 351.904 467.137 351.964 466.966 351.964Z" fill="#CCCCCC"/>
</g>
<defs>
<clipPath id="clip0_7_416">
<rect width="525" height="352" fill="white"/>
</clipPath>
</defs>
</svg>
