<svg width="450" height="450" viewBox="0 0 450 450" fill="none" xmlns="http://www.w3.org/2000/svg">
<path d="M450 344.16H0V344.385H450V344.16Z" fill="#EBEBEB"/>
<path d="M404.91 358.641H375.102V358.866H404.91V358.641Z" fill="#EBEBEB"/>
<path d="M298.098 361.089H290.277V361.314H298.098V361.089Z" fill="#EBEBEB"/>
<path d="M374.202 350.289H356.931V350.514H374.202V350.289Z" fill="#EBEBEB"/>
<path d="M86.085 351.801H47.214V352.026H86.085V351.801Z" fill="#EBEBEB"/>
<path d="M99.801 351.801H94.104V352.026H99.801V351.801Z" fill="#EBEBEB"/>
<path d="M202.635 355.599H118.323V355.824H202.635V355.599Z" fill="#EBEBEB"/>
<path d="M213.3 304.02H39.519C38.1576 304.018 36.8528 303.475 35.891 302.512C34.9292 301.548 34.389 300.242 34.389 298.881V54.594C34.4008 53.2404 34.9463 51.9462 35.9068 50.9924C36.8673 50.0386 38.1654 49.5023 39.519 49.5H213.3C214.663 49.5 215.97 50.0414 216.934 51.0052C217.898 51.9689 218.439 53.2761 218.439 54.639V298.881C218.439 300.244 217.898 301.551 216.934 302.515C215.97 303.479 214.663 304.02 213.3 304.02ZM39.519 49.68C38.2173 49.6824 36.9697 50.2012 36.0501 51.1225C35.1305 52.0437 34.614 53.2923 34.614 54.594V298.881C34.614 300.183 35.1305 301.431 36.0501 302.353C36.9697 303.274 38.2173 303.793 39.519 303.795H213.3C214.603 303.793 215.851 303.274 216.772 302.353C217.693 301.432 218.212 300.184 218.214 298.881V54.594C218.212 53.2915 217.693 52.0429 216.772 51.1219C215.851 50.2009 214.603 49.6824 213.3 49.68H39.519Z" fill="#EBEBEB"/>
<path d="M407.979 304.02H234.189C232.827 304.018 231.521 303.475 230.558 302.512C229.595 301.549 229.052 300.243 229.05 298.881V54.594C229.064 53.2396 229.612 51.9454 230.574 50.9918C231.536 50.0383 232.835 49.5023 234.189 49.5H407.979C409.331 49.5047 410.627 50.042 411.585 50.9956C412.544 51.9491 413.088 53.242 413.1 54.594V298.881C413.1 300.241 412.561 301.545 411.601 302.508C410.641 303.472 409.339 304.015 407.979 304.02ZM234.189 49.68C232.886 49.6824 231.638 50.2009 230.717 51.1219C229.796 52.0429 229.277 53.2915 229.275 54.594V298.881C229.277 300.184 229.796 301.432 230.717 302.353C231.638 303.274 232.886 303.793 234.189 303.795H407.979C409.282 303.793 410.53 303.274 411.451 302.353C412.372 301.432 412.891 300.184 412.893 298.881V54.594C412.891 53.2915 412.372 52.0429 411.451 51.1219C410.53 50.2009 409.282 49.6824 407.979 49.68H234.189Z" fill="#EBEBEB"/>
<path d="M187.947 237.492H174.087V344.16H187.947V237.492Z" fill="#F0F0F0"/>
<path d="M52.776 344.16H174.087V237.492H52.776L52.776 344.16Z" fill="#F5F5F5"/>
<path d="M51.678 334.791H158.184V277.74H51.678V334.791Z" fill="#FAFAFA"/>
<path d="M51.678 271.692H158.184V252.909H51.678V271.692Z" fill="#FAFAFA"/>
<g style="mix-blend-mode:multiply" opacity="0.7">
<path d="M159.129 277.74H158.175V334.791H159.129V277.74Z" fill="#E6E6E6"/>
</g>
<g style="mix-blend-mode:multiply" opacity="0.7">
<path d="M159.129 252.909H158.175V271.692H159.129V252.909Z" fill="#E6E6E6"/>
</g>
<g style="mix-blend-mode:multiply" opacity="0.7">
<path d="M187.947 241.992H52.47V244.404H187.947V241.992Z" fill="#E6E6E6"/>
</g>
<path d="M189.567 236.034H174.087V243.009H189.567V236.034Z" fill="#F0F0F0"/>
<path d="M51.156 243.009L174.087 243.009V236.034L51.156 236.034V243.009Z" fill="#F5F5F5"/>
<path d="M395.577 217.251H358.848V344.16H395.577V217.251Z" fill="#E0E0E0"/>
<path d="M210.393 344.16H387.738L396.468 213.921H219.123L210.393 344.16Z" fill="#E6E6E6"/>
<path d="M207.387 344.16H384.741L393.462 213.921H216.117L207.387 344.16Z" fill="#F0F0F0"/>
<path d="M218.25 336.555H374.895L382.599 221.526H225.954L218.25 336.555Z" fill="white"/>
<path d="M165.771 232.119H162.531V179.235C162.533 178.806 162.705 178.395 163.008 178.092C163.311 177.789 163.722 177.617 164.151 177.615C164.58 177.617 164.991 177.789 165.294 178.092C165.597 178.395 165.769 178.806 165.771 179.235V232.119Z" fill="#F5F5F5"/>
<path d="M174.213 236.034H154.089L155.097 234.234C155.503 233.51 156.095 232.907 156.812 232.488C157.528 232.069 158.344 231.848 159.174 231.849H169.137C169.967 231.85 170.781 232.072 171.498 232.491C172.214 232.91 172.806 233.511 173.214 234.234L174.213 236.034Z" fill="#F0F0F0"/>
<path d="M148.788 196.335C148.788 196.335 149.175 181.224 164.151 181.224C179.127 181.224 179.523 196.335 179.523 196.335H148.788Z" fill="#E0E0E0"/>
<path d="M82.296 160.515L384.534 160.515V69.174L82.296 69.174V160.515Z" fill="#E6E6E6"/>
<path d="M74.052 160.515L382.617 160.515V69.174L74.052 69.174V160.515Z" fill="#F0F0F0"/>
<path d="M82.296 160.515H384.534V167.049H78.444L82.296 160.515Z" fill="#E6E6E6"/>
<path d="M67.248 160.515H375.813L374.031 167.049H65.466L67.248 160.515Z" fill="#F0F0F0"/>
<path d="M371.079 148.977V80.712L85.59 80.712V148.977H371.079Z" fill="#FAFAFA"/>
<path d="M329.832 148.977L291.195 80.712H254.304L292.941 148.977H329.832Z" fill="white"/>
<path d="M285.012 148.977L246.384 80.712H232.002L270.63 148.977H285.012Z" fill="white"/>
<path d="M87.057 148.977V80.712H85.59V148.977H87.057Z" fill="#E6E6E6"/>
<path d="M225 384.804C321.374 384.804 399.501 380.243 399.501 374.616C399.501 368.989 321.374 364.428 225 364.428C128.626 364.428 50.499 368.989 50.499 374.616C50.499 380.243 128.626 384.804 225 384.804Z" fill="#F5F5F5"/>
<path d="M177.849 362.601L184.626 360.099L179.433 344.124L172.656 346.626L177.849 362.601Z" fill="#FFC3BD"/>
<path d="M183.474 355.212L176.04 357.822C175.909 357.867 175.799 357.959 175.731 358.08C175.663 358.201 175.641 358.343 175.671 358.479L177.066 364.833C177.105 364.991 177.176 365.14 177.275 365.27C177.375 365.399 177.5 365.507 177.643 365.585C177.786 365.664 177.943 365.712 178.106 365.727C178.269 365.741 178.432 365.722 178.587 365.67C181.287 364.68 185.058 363.168 188.424 361.989C192.366 360.603 193.554 360.702 197.982 358.65C200.682 357.417 199.863 354.438 198.603 354.726C192.87 356.004 191.241 356.301 185.355 355.158C184.734 355.009 184.085 355.028 183.474 355.212Z" fill="#263238"/>
<path opacity="0.2" d="M179.433 344.124L182.115 352.359L175.329 354.861L172.647 346.626L179.433 344.124Z" fill="black"/>
<path d="M184.914 355.419C184.883 355.419 184.852 355.41 184.827 355.392C184.801 355.374 184.781 355.349 184.77 355.32C184.749 355.291 184.738 355.256 184.738 355.221C184.738 355.185 184.749 355.151 184.77 355.122C185.031 354.852 187.362 352.467 188.37 352.647C188.461 352.665 188.546 352.707 188.616 352.769C188.685 352.83 188.737 352.909 188.766 352.998C188.826 353.143 188.851 353.3 188.839 353.457C188.826 353.613 188.777 353.764 188.694 353.898C188.145 354.798 186.102 355.248 184.941 355.41L184.914 355.419ZM188.226 352.989C187.659 352.989 186.336 354.087 185.409 354.987C186.993 354.717 188.109 354.258 188.406 353.727C188.453 353.635 188.477 353.533 188.477 353.43C188.477 353.327 188.453 353.225 188.406 353.133C188.394 353.097 188.373 353.064 188.344 353.039C188.316 353.014 188.281 352.997 188.244 352.989H188.226Z" fill="#407BFF"/>
<path d="M184.914 355.419H184.869C184.84 355.41 184.814 355.394 184.794 355.372C184.773 355.35 184.759 355.322 184.752 355.293C184.752 355.212 184.374 353.277 185.022 352.242C185.206 351.943 185.5 351.73 185.841 351.648C186.3 351.54 186.498 351.72 186.579 351.9C186.939 352.638 185.742 354.708 185.031 355.374C185.015 355.389 184.997 355.4 184.977 355.408C184.957 355.416 184.936 355.42 184.914 355.419ZM186.084 351.954H185.904C185.779 351.981 185.662 352.035 185.56 352.111C185.457 352.187 185.372 352.284 185.31 352.395C184.978 353.169 184.884 354.024 185.04 354.852C185.724 354.042 186.489 352.467 186.273 352.026C186.3 352.026 186.228 351.954 186.084 351.954Z" fill="#407BFF"/>
<path d="M146.799 281.223C131.049 246.654 119.043 231.876 120.258 213.291L145.647 210.69C145.647 210.69 160.551 255.6 164.79 276.975C169.2 299.187 182.7 347.04 182.7 347.04L171.477 350.181C171.477 350.181 149.508 306.126 146.799 281.223Z" fill="#27AE3D"/>
<path opacity="0.2" d="M122.787 230.562C125.487 238.725 130.23 247.608 136.143 259.227C136.449 259.803 136.755 260.379 137.043 260.973C135.981 246.87 135.09 234.999 122.787 230.562Z" fill="black"/>
<path d="M183.123 343.629L183.978 348.642L172.071 353.403L169.92 349.173L183.123 343.629Z" fill="#263238"/>
<path d="M110.115 353.394L109.548 370.179L117.576 370.071L118.152 353.277L110.115 353.394Z" fill="#FFC3BD"/>
<path d="M117.477 366.435L109.584 366.561C109.446 366.562 109.312 366.614 109.209 366.707C109.107 366.8 109.041 366.927 109.026 367.065L108.342 373.518C108.328 373.682 108.349 373.846 108.402 374.002C108.456 374.157 108.541 374.299 108.653 374.42C108.765 374.54 108.901 374.636 109.052 374.7C109.203 374.765 109.366 374.798 109.53 374.796C112.365 374.697 113.265 374.472 116.838 374.409C121.023 374.346 122.31 374.517 127.215 374.409C130.185 374.355 130.662 371.358 129.393 371.088C125.37 370.251 121.095 368.649 119.286 366.939C118.769 366.548 118.122 366.367 117.477 366.435Z" fill="#263238"/>
<path opacity="0.2" d="M110.115 353.394L109.818 362.052L117.855 361.935L118.152 353.286L110.115 353.394Z" fill="black"/>
<path d="M116.046 366.984C116.015 366.986 115.983 366.978 115.956 366.962C115.929 366.946 115.907 366.922 115.893 366.894C115.873 366.866 115.863 366.833 115.863 366.8C115.863 366.766 115.873 366.733 115.893 366.705C116.145 366.426 118.332 364.005 119.331 364.149C119.424 364.162 119.511 364.198 119.585 364.255C119.659 364.312 119.718 364.387 119.754 364.473C119.827 364.612 119.864 364.766 119.864 364.923C119.864 365.08 119.827 365.234 119.754 365.373C119.268 366.318 117.225 366.795 116.055 366.993L116.046 366.984ZM119.232 364.482C118.647 364.482 117.432 365.625 116.532 366.552C118.125 366.228 119.232 365.733 119.484 365.211C119.533 365.12 119.558 365.018 119.558 364.914C119.558 364.81 119.533 364.708 119.484 364.617C119.47 364.583 119.446 364.553 119.416 364.53C119.386 364.508 119.35 364.495 119.313 364.491L119.232 364.482Z" fill="#407BFF"/>
<path d="M116.046 366.984H116.001C115.971 366.976 115.943 366.96 115.921 366.938C115.899 366.916 115.883 366.888 115.875 366.858C115.875 366.777 115.335 364.887 115.929 363.852C116.01 363.702 116.122 363.57 116.257 363.464C116.391 363.359 116.546 363.283 116.712 363.24C116.844 363.179 116.994 363.167 117.134 363.207C117.275 363.246 117.396 363.335 117.477 363.456C117.891 364.176 116.838 366.255 116.163 366.939C116.131 366.968 116.089 366.984 116.046 366.984ZM116.946 363.537H116.775C116.653 363.568 116.539 363.623 116.439 363.701C116.34 363.778 116.258 363.876 116.199 363.987C115.92 364.768 115.888 365.617 116.109 366.417C116.748 365.598 117.405 364.023 117.153 363.591C117.111 363.555 117.056 363.535 117 363.537H116.946Z" fill="#407BFF"/>
<path d="M109.883 286.511C107.606 260.627 100.379 233.168 103.997 214.304L130.511 212C130.511 212 133.427 265.289 130.511 287.339C127.514 310.271 119.711 356.342 119.711 356.342L108.011 356.513C108.011 356.513 106.769 311.9 109.883 286.511Z" fill="#27AE3D"/>
<path d="M121.788 354.141L121.023 359.127L107.937 359.361L107.199 354.645L121.788 354.141Z" fill="#263238"/>
<path d="M169.983 134.901C170.004 134.546 169.956 134.191 169.839 133.855C169.723 133.52 169.542 133.21 169.307 132.944C169.071 132.679 168.785 132.462 168.466 132.306C168.146 132.151 167.8 132.06 167.445 132.039C166.729 131.996 166.025 132.239 165.488 132.715C164.952 133.191 164.626 133.861 164.583 134.577V134.712C164.169 136.512 163.683 138.501 163.242 140.355C162.801 142.209 162.216 144.054 161.577 145.755C161.025 147.388 160.31 148.962 159.444 150.453C159.122 151.013 158.738 151.535 158.301 152.01C156.674 151.777 155.06 151.455 153.468 151.047C151.263 150.471 148.968 149.778 146.754 149.031C144.54 148.284 142.254 147.474 139.986 146.628C137.718 145.782 135.486 144.891 133.299 144.054H133.2C131.872 143.567 130.407 143.611 129.111 144.178C127.814 144.745 126.787 145.79 126.243 147.096C125.698 148.402 125.679 149.867 126.189 151.187C126.699 152.506 127.698 153.578 128.979 154.179C131.418 155.277 133.758 156.141 136.179 157.05C138.6 157.959 141.039 158.733 143.541 159.453C146.043 160.173 148.581 160.812 151.236 161.307C154.065 161.891 156.952 162.144 159.84 162.063H160.119C160.855 162.028 161.57 161.808 162.198 161.424C163.594 160.559 164.801 159.42 165.744 158.076C166.517 156.977 167.169 155.797 167.688 154.557C168.17 153.454 168.561 152.313 168.858 151.146C169.155 150.03 169.398 148.923 169.578 147.834C169.932 145.687 170.143 143.52 170.208 141.345C170.277 139.194 170.202 137.042 169.983 134.901Z" fill="#FFC3BD"/>
<path d="M168.192 138.6L175.23 135.585L169.353 129.051C169.353 129.051 162.774 132.336 164.421 136.251L168.192 138.6Z" fill="#FFC3BD"/>
<path d="M178.011 130.608L175.5 127.593C175.188 127.221 174.756 126.969 174.279 126.878C173.802 126.788 173.308 126.866 172.881 127.098L169.398 129.006L175.275 135.54L177.732 133.632C177.955 133.456 178.139 133.236 178.275 132.987C178.41 132.737 178.493 132.463 178.519 132.18C178.546 131.897 178.514 131.612 178.427 131.342C178.339 131.072 178.198 130.822 178.011 130.608Z" fill="#FFC3BD"/>
<path d="M128.745 141.426C135.882 140.922 150.03 149.121 150.03 149.121L143.1 163.854C138.815 162.947 134.728 161.279 131.031 158.931C129.006 157.68 120.285 142.029 128.745 141.426Z" fill="#263238"/>
<path d="M129.6 141.408C120.087 141.74 110.652 143.252 101.511 145.908C97.191 147.267 93.411 151.308 94.221 155.754C96.102 166.554 100.206 184.599 102.321 215.883C106.173 216.999 118.926 215.928 127.845 215.046C128.817 214.956 131.13 212.616 131.13 212.616C131.13 212.616 133.317 214.416 134.55 214.236C140.454 213.336 145.134 212.22 146.196 211.023C145.296 202.149 142.938 182.691 141.588 170.055C141.408 165.069 140.634 155.88 138.582 150.669C136.629 145.728 134.856 141.3 129.6 141.408Z" fill="#263238"/>
<path d="M111.276 130.914C112.455 136.215 112.059 141.885 109.035 145.719C111.258 149.022 116.433 151.614 121.572 152.919C124.839 149.004 124.659 144.909 123.183 142.749C123.183 139.734 122.85 137.628 122.958 135.369L111.276 130.914Z" fill="#FFC3BD"/>
<path d="M121.572 152.901C122.236 152 122.665 150.949 122.823 149.841C122.958 148.221 125.793 149.292 125.793 149.292C124.719 150.838 123.266 152.081 121.572 152.901Z" fill="#E0E0E0"/>
<path d="M121.572 152.901C121.408 152.318 121.07 151.8 120.604 151.414C120.138 151.028 119.565 150.793 118.962 150.741C117.545 150.556 116.105 150.694 114.75 151.146C114.75 151.146 118.8 153 121.572 152.901Z" fill="#E0E0E0"/>
<path opacity="0.2" d="M115.038 129.447H114.948C114.993 129.519 115.029 129.501 115.038 129.447Z" fill="black"/>
<path opacity="0.2" d="M122.967 135.36L113.769 131.283C112.869 136.134 117.675 138.537 123.084 139.455C122.975 138.093 122.936 136.726 122.967 135.36Z" fill="black"/>
<path d="M123.066 113.085C129.825 112.311 131.355 117.045 128.367 123.165C126.751 122.022 125.428 120.513 124.507 118.761C123.586 117.009 123.092 115.064 123.066 113.085Z" fill="#263238"/>
<path d="M109.116 121.941C110.466 128.988 110.493 133.515 115.038 135.9C125.109 141.192 129.438 136.638 130.203 129.312C130.914 122.715 128.592 112.293 121.275 110.412C119.654 109.998 117.953 110.001 116.334 110.422C114.714 110.843 113.227 111.668 112.013 112.82C110.798 113.971 109.896 115.412 109.389 117.007C108.883 118.602 108.789 120.3 109.116 121.941Z" fill="#FFC3BD"/>
<path d="M111.096 126.9C113.796 127.557 114.894 126.522 114.993 126.126C114.296 126.025 113.619 125.815 112.986 125.505C112.986 125.505 114.498 125.028 114.651 123.966C113.436 123.966 111.141 122.166 111.87 120.249C112.599 118.332 112.329 117.846 111.096 117.342C108.802 116.745 106.411 116.619 104.067 116.973C104.483 117.343 104.953 117.647 105.462 117.873C105.462 117.873 102.762 119.241 104.067 121.473C105.372 123.705 108.063 125.577 107.847 126.927C110.007 127.728 111.096 126.9 111.096 126.9Z" fill="#263238"/>
<path d="M127.8 110.529C130.248 110.529 131.616 109.125 131.787 107.55C129.69 108.738 126.657 108.135 121.086 106.218C116.001 104.418 112.392 105.48 109.962 107.379C110.007 106.299 112.041 104.616 112.041 104.616C112.041 104.616 107.226 104.616 104.904 108.414C103.05 111.447 105.003 113.049 105.003 113.049C105.003 113.049 101.016 112.995 99.846 116.19C102.447 115.02 103.833 116.406 103.833 116.406C103.247 116.86 102.594 117.222 101.898 117.477C102.735 118.89 105.102 118.161 105.102 118.161C109.224 120.6 121.59 117 123.543 116.1C122.478 115.955 121.437 115.671 120.447 115.254C120.447 115.254 128.403 112.779 131.697 114.66C132.3 113.166 129.906 111.123 127.8 110.529Z" fill="#D5D6D1"/>
<path d="M127.467 130.059C127.467 130.059 125.298 129.51 119.268 129.393C119.638 130.465 120.353 131.384 121.3 132.008C122.248 132.631 123.375 132.924 124.506 132.84C124.889 132.877 125.275 132.833 125.639 132.709C126.003 132.585 126.337 132.384 126.617 132.121C126.897 131.857 127.118 131.537 127.265 131.182C127.411 130.826 127.48 130.443 127.467 130.059Z" fill="#263238"/>
<path d="M123.021 131.4C124.225 131.354 125.413 131.691 126.414 132.363C125.853 132.742 125.182 132.926 124.506 132.885C123.302 132.925 122.116 132.589 121.113 131.922C121.675 131.544 122.345 131.361 123.021 131.4Z" fill="#ED847E"/>
<path d="M127.188 130.005C127.035 130.392 126.882 130.788 126.288 130.905C124.49 130.87 122.698 130.68 120.933 130.338C120.645 130.311 120.368 130.215 120.126 130.058C119.883 129.902 119.681 129.689 119.538 129.438C122.099 129.422 124.657 129.612 127.188 130.005Z" fill="white"/>
<path opacity="0.2" d="M119.052 128.331C119.052 128.331 117.387 128.151 117.666 129.483C117.9 128.916 119.052 128.331 119.052 128.331Z" fill="black"/>
<path opacity="0.2" d="M117.99 122.643C117.033 122.251 115.959 122.251 115.002 122.643C115.989 122.836 117.003 122.836 117.99 122.643Z" fill="black"/>
<path opacity="0.2" d="M117.9 123.363C117.44 123.271 116.966 123.28 116.511 123.39C116.055 123.501 115.629 123.71 115.263 124.002C116.177 123.977 117.076 123.759 117.9 123.363Z" fill="black"/>
<path opacity="0.2" d="M127.935 121.356C127.935 121.356 128.691 120.51 129.267 120.78C128.888 121.097 128.425 121.297 127.935 121.356Z" fill="black"/>
<path opacity="0.2" d="M127.935 121.887C127.935 121.887 128.664 121.338 129.087 121.887C128.905 121.963 128.709 122.002 128.511 122.002C128.313 122.002 128.117 121.963 127.935 121.887Z" fill="black"/>
<path d="M106.704 127.98C107.266 129.518 108.415 130.771 109.899 131.463C111.879 132.363 113.211 130.671 112.959 128.628C112.725 126.828 111.42 124.128 109.296 124.074C108.831 124.073 108.374 124.187 107.964 124.406C107.555 124.625 107.206 124.942 106.949 125.329C106.692 125.716 106.535 126.161 106.492 126.624C106.45 127.086 106.522 127.552 106.704 127.98Z" fill="#FFC3BD"/>
<path d="M119.043 122.931C119.124 123.507 119.484 123.939 119.862 123.885C120.24 123.831 120.492 123.327 120.42 122.742C120.348 122.157 119.979 121.734 119.601 121.788C119.223 121.842 118.971 122.4 119.043 122.931Z" fill="#263238"/>
<path d="M126.27 121.959C126.342 122.535 126.711 122.967 127.089 122.913C127.467 122.859 127.71 122.346 127.638 121.77C127.566 121.194 127.197 120.762 126.819 120.816C126.441 120.87 126.189 121.374 126.27 121.959Z" fill="#263238"/>
<path d="M123.876 122.31C124.866 123.947 126.078 125.44 127.476 126.747C127.126 127.101 126.703 127.374 126.237 127.546C125.77 127.719 125.272 127.787 124.776 127.746L123.876 122.31Z" fill="#ED847E"/>
<path d="M117.216 120.303C117.163 120.315 117.107 120.315 117.054 120.303C117.014 120.282 116.979 120.252 116.951 120.217C116.922 120.181 116.902 120.14 116.89 120.096C116.878 120.052 116.876 120.007 116.882 119.962C116.889 119.917 116.904 119.874 116.928 119.835C117.184 119.351 117.552 118.935 118.001 118.622C118.451 118.309 118.968 118.108 119.511 118.035C119.556 118.033 119.601 118.039 119.643 118.054C119.686 118.069 119.725 118.092 119.758 118.122C119.792 118.152 119.819 118.189 119.838 118.229C119.858 118.27 119.869 118.314 119.871 118.359C119.875 118.403 119.869 118.448 119.855 118.491C119.841 118.533 119.819 118.572 119.79 118.606C119.76 118.639 119.725 118.667 119.684 118.686C119.644 118.706 119.601 118.717 119.556 118.719C119.129 118.782 118.722 118.944 118.369 119.193C118.016 119.441 117.726 119.769 117.522 120.15C117.489 120.2 117.443 120.241 117.39 120.268C117.336 120.294 117.276 120.307 117.216 120.303Z" fill="#263238"/>
<path d="M128.25 118.206C128.196 118.221 128.138 118.222 128.084 118.209C128.029 118.197 127.978 118.171 127.935 118.134C127.627 117.835 127.253 117.614 126.843 117.489C126.433 117.364 125.999 117.338 125.577 117.414C125.533 117.426 125.488 117.429 125.443 117.423C125.398 117.416 125.354 117.401 125.316 117.377C125.277 117.354 125.243 117.322 125.217 117.285C125.191 117.248 125.172 117.206 125.163 117.162C125.141 117.075 125.154 116.983 125.2 116.905C125.245 116.828 125.319 116.771 125.406 116.748C125.941 116.644 126.493 116.672 127.015 116.829C127.538 116.985 128.014 117.266 128.403 117.648C128.466 117.713 128.501 117.8 128.501 117.891C128.501 117.982 128.466 118.069 128.403 118.134C128.361 118.173 128.307 118.198 128.25 118.206Z" fill="#263238"/>
<path d="M110.025 190.152H109.872C107.919 189.72 105.804 189.252 103.842 188.64C101.911 188.093 100.019 187.413 98.181 186.606C96.5545 185.936 95.0376 185.026 93.681 183.906C93.1899 183.495 92.7703 183.005 92.439 182.457C92.3443 182.28 92.2631 182.097 92.196 181.908C92.196 181.854 92.268 181.638 92.295 181.485L92.475 180.882L92.7 180.198C93.042 179.244 93.456 178.191 93.915 177.147C94.815 175.059 95.886 172.908 96.966 170.766C98.046 168.624 99.171 166.473 100.305 164.331L103.734 157.923C104.417 156.658 104.576 155.175 104.178 153.794C103.779 152.413 102.855 151.243 101.603 150.535C100.352 149.828 98.8725 149.64 97.4837 150.012C96.0949 150.384 94.9073 151.285 94.176 152.523C92.844 154.755 91.683 156.96 90.495 159.21C89.307 161.46 88.2 163.71 87.147 166.086C86.094 168.462 85.068 170.802 84.159 173.286C83.709 174.555 83.259 175.842 82.89 177.264L82.629 178.371C82.548 178.776 82.467 179.154 82.395 179.586C82.3172 180.057 82.2631 180.532 82.233 181.008C82.233 181.296 82.233 181.485 82.233 181.845C82.233 182.205 82.233 182.52 82.287 182.853V182.925C82.3047 183.12 82.3409 183.313 82.395 183.501C82.8453 185.218 83.6552 186.819 84.771 188.199C85.7662 189.405 86.9337 190.457 88.236 191.322C90.4737 192.75 92.9302 193.802 95.508 194.436C97.8331 195.03 100.207 195.415 102.6 195.588C104.945 195.777 107.302 195.777 109.647 195.588C110.363 195.636 111.069 195.397 111.609 194.924C112.149 194.452 112.479 193.784 112.527 193.068C112.575 192.352 112.336 191.646 111.863 191.106C111.391 190.566 110.723 190.236 110.007 190.188L110.025 190.152Z" fill="#FFC3BD"/>
<path d="M101.025 146.043C92.979 148.239 84.825 168.786 84.825 168.786L97.02 178.488C97.02 178.488 104.544 171.954 106.209 164.232C107.46 158.31 109.206 143.802 101.025 146.043Z" fill="#263238"/>
<path d="M105.777 189.783L112.563 187.029L113.463 195.768C113.463 195.768 107.019 197.514 105.534 194.238L105.777 189.783Z" fill="#FFC3BD"/>
<path d="M119.592 189.9L119.394 193.014C119.354 193.614 119.103 194.181 118.684 194.613C118.265 195.044 117.707 195.314 117.108 195.372L113.454 195.732L112.554 186.993L117.162 187.2C117.501 187.212 117.833 187.293 118.14 187.436C118.447 187.58 118.722 187.784 118.949 188.035C119.175 188.287 119.349 188.582 119.46 188.902C119.57 189.223 119.615 189.562 119.592 189.9Z" fill="#FFC3BD"/>
<path d="M110.403 142.659C110.61 144.315 111.663 149.859 118.962 150.759C116.37 151.38 116.343 155.592 116.343 155.592C116.343 155.592 106.839 150.633 108.243 143.964C108.782 143.283 109.549 142.819 110.403 142.659Z" fill="white"/>
<path d="M123.219 141.012C123.039 142.758 123.543 145.125 122.823 149.841C125.424 149.265 126.855 152.901 126.855 152.901C126.855 152.901 128.826 146.394 124.785 141.327C124.278 141.159 123.752 141.053 123.219 141.012Z" fill="white"/>
<path d="M254.367 124.596C258.174 119.628 265.167 113.742 271.575 119.457C277.515 124.776 277.299 141.057 270.378 145.476C270.603 137.844 258.561 137.547 260.982 128.232C259.742 129.872 258.218 131.278 256.482 132.381L254.367 124.596Z" fill="#263238"/>
<path d="M252.72 122.517C255.951 121.617 256.788 121.23 258.12 121.806C259.452 122.382 258.957 124.947 260.145 126.864C261.333 128.781 262.899 130.329 259.047 132.192C257.346 131.143 255.898 129.732 254.804 128.06C253.711 126.388 252.999 124.495 252.72 122.517Z" fill="#177326"/>
<path d="M239.796 120.699C225.324 116.721 225.063 137.799 227.709 150.399C228.624 147.69 230.088 145.199 232.011 143.082L244.413 152.145C253.17 149.445 268.38 139.374 256.113 126.828C251.478 112.302 239.796 120.699 239.796 120.699Z" fill="#263238"/>
<path d="M258.858 348.849L267.75 349.497C266.526 356.58 265.365 367.767 265.365 367.767H258.3C258.3 367.767 259.119 353.7 258.858 348.849Z" fill="#B55B52"/>
<path d="M212.166 348.849L220.995 349.497C219.006 356.58 216.666 367.767 216.666 367.767H209.61C209.61 367.767 211.914 353.7 212.166 348.849Z" fill="#B55B52"/>
<path d="M250.668 374.76C256.797 374.76 256.365 374.661 259.821 374.544C262.773 374.445 263.421 374.814 265.833 374.76C267.813 374.76 267.876 372.816 267.426 370.638C267.255 369.801 266.994 368.838 266.751 367.623C266.686 367.286 266.504 366.982 266.237 366.765C265.971 366.547 265.637 366.431 265.293 366.435H258.093C257.83 366.436 257.571 366.498 257.337 366.617C257.102 366.735 256.899 366.907 256.743 367.119C255.891 368.237 254.819 369.169 253.593 369.858C252.367 370.547 251.013 370.978 249.615 371.124C246.312 371.565 248.229 374.76 250.668 374.76Z" fill="#1E7B2D"/>
<path d="M199.034 371.541C204.938 372.549 205.613 372.279 208.934 372.738C211.823 373.134 212.057 373.8 214.946 374.304C216.854 374.637 217.952 372.585 217.871 370.893C217.871 369.876 217.619 368.688 217.628 367.437C217.64 367.114 217.533 366.798 217.327 366.549C217.122 366.3 216.831 366.135 216.512 366.087L210.365 365.025C210.123 364.984 209.875 364.994 209.636 365.052C209.398 365.111 209.174 365.218 208.979 365.367C207.613 366.45 206.042 367.247 204.362 367.711C202.681 368.175 200.924 368.296 199.196 368.067C195.938 367.77 196.667 371.127 199.034 371.541Z" fill="#1E7B2D"/>
<path d="M221.602 211C221.602 211 216.031 254.344 216.517 281.875C214.402 307.723 211 357.16 211 357.16C211.108 358.474 218.074 357.952 219.307 357.16C219.307 357.16 235.273 323.797 232.672 281.875C250.411 238.153 249.349 211 249.349 211H221.602Z" fill="#177326"/>
<path opacity="0.2" d="M244.557 245.529C243.18 251.181 241.416 257.436 239.157 264.249C238.491 250.524 234.783 232.155 234.657 231.534L244.557 245.529Z" fill="black"/>
<path d="M229.302 210.528C229.302 210.528 241.983 259.452 247.005 283.482C252.279 308.682 259.668 339.921 258.201 356.688C259.614 357.516 264.663 357.588 267.516 356.688C267.516 356.688 278.37 308.889 264.564 284.598C269.559 224.82 253.764 210.528 253.764 210.528H229.302Z" fill="#177326"/>
<path d="M257.598 353.196C257.538 354.351 257.397 355.499 257.175 356.634C257.153 356.728 257.15 356.825 257.168 356.92C257.185 357.014 257.222 357.104 257.276 357.184C257.331 357.264 257.401 357.331 257.483 357.382C257.564 357.433 257.656 357.466 257.751 357.48C261.144 358.029 266.103 357.237 267.651 356.958C267.798 356.931 267.932 356.859 268.037 356.753C268.141 356.647 268.211 356.511 268.236 356.364L268.839 353.142C268.859 353.04 268.856 352.936 268.831 352.835C268.805 352.735 268.757 352.642 268.691 352.562C268.624 352.483 268.541 352.419 268.447 352.376C268.352 352.333 268.25 352.312 268.146 352.314L258.246 352.503C258.074 352.524 257.914 352.605 257.796 352.732C257.677 352.858 257.607 353.023 257.598 353.196Z" fill="#263238"/>
<path opacity="0.1" d="M257.598 353.196C257.538 354.351 257.397 355.499 257.175 356.634C257.153 356.728 257.15 356.825 257.168 356.92C257.185 357.014 257.222 357.104 257.276 357.184C257.331 357.264 257.401 357.331 257.483 357.382C257.564 357.433 257.656 357.466 257.751 357.48C261.144 358.029 266.103 357.237 267.651 356.958C267.798 356.931 267.932 356.859 268.037 356.753C268.141 356.647 268.211 356.511 268.236 356.364L268.839 353.142C268.859 353.04 268.856 352.936 268.831 352.835C268.805 352.735 268.757 352.642 268.691 352.562C268.624 352.483 268.541 352.419 268.447 352.376C268.352 352.333 268.25 352.312 268.146 352.314L258.246 352.503C258.074 352.524 257.914 352.605 257.796 352.732C257.677 352.858 257.607 353.023 257.598 353.196Z" fill="white"/>
<path d="M210.474 353.043C210.384 353.943 210.213 355.536 210.042 356.724C210.028 356.815 210.032 356.908 210.055 356.998C210.077 357.087 210.117 357.171 210.173 357.245C210.228 357.319 210.297 357.381 210.377 357.427C210.457 357.474 210.545 357.504 210.636 357.516C213.69 357.766 216.76 357.73 219.807 357.408C219.958 357.394 220.102 357.334 220.218 357.236C220.334 357.138 220.417 357.006 220.455 356.859L221.355 353.646C221.387 353.543 221.395 353.435 221.378 353.328C221.361 353.222 221.319 353.121 221.256 353.034C221.193 352.947 221.111 352.875 221.016 352.825C220.92 352.775 220.815 352.748 220.707 352.746L211.275 352.368C211.178 352.359 211.08 352.37 210.987 352.399C210.895 352.429 210.808 352.476 210.734 352.539C210.66 352.601 210.598 352.678 210.554 352.765C210.509 352.851 210.482 352.946 210.474 353.043Z" fill="#263238"/>
<path opacity="0.1" d="M210.474 353.043C210.384 353.943 210.213 355.536 210.042 356.724C210.028 356.815 210.032 356.908 210.055 356.998C210.077 357.087 210.117 357.171 210.173 357.245C210.228 357.319 210.297 357.381 210.377 357.427C210.457 357.474 210.545 357.504 210.636 357.516C213.69 357.766 216.76 357.73 219.807 357.408C219.958 357.394 220.102 357.334 220.218 357.236C220.334 357.138 220.417 357.006 220.455 356.859L221.355 353.646C221.387 353.543 221.395 353.435 221.378 353.328C221.361 353.222 221.319 353.121 221.256 353.034C221.193 352.947 221.111 352.875 221.016 352.825C220.92 352.775 220.815 352.748 220.707 352.746L211.275 352.368C211.178 352.359 211.08 352.37 210.987 352.399C210.895 352.429 210.808 352.476 210.734 352.539C210.66 352.601 210.598 352.678 210.554 352.765C210.509 352.851 210.482 352.946 210.474 353.043Z" fill="white"/>
<path d="M229.347 165.213C228.788 164.867 228.167 164.634 227.518 164.529C226.869 164.423 226.206 164.447 225.566 164.598C224.927 164.75 224.323 165.026 223.791 165.411C223.258 165.796 222.806 166.282 222.462 166.842C221.184 168.912 219.969 171.036 218.709 173.142C217.449 175.248 216.243 177.354 215.037 179.442C213.066 182.871 211.131 186.318 209.205 189.765C208.8 189.675 208.395 189.576 207.972 189.441C206.453 188.952 204.973 188.351 203.544 187.641C202.041 186.921 200.547 186.093 199.044 185.211C197.541 184.329 196.047 183.411 194.643 182.466L194.517 182.394C194.02 182.069 193.423 181.932 192.833 182.008C192.244 182.084 191.702 182.368 191.303 182.809C190.905 183.249 190.677 183.818 190.66 184.412C190.644 185.006 190.84 185.586 191.214 186.048C191.853 186.858 192.465 187.551 193.131 188.253C193.797 188.955 194.445 189.648 195.138 190.314C196.56 191.656 198.063 192.909 199.638 194.067C201.288 195.279 203.047 196.333 204.894 197.217C206.992 198.245 209.262 198.874 211.59 199.071C212.328 199.123 213.066 198.978 213.729 198.653C214.393 198.327 214.959 197.832 215.37 197.217L215.577 196.911C218.307 192.813 220.971 188.682 223.569 184.518C224.874 182.439 226.152 180.333 227.412 178.218C228.672 176.103 229.932 174.006 231.129 171.846C231.732 170.721 231.884 169.409 231.552 168.176C231.221 166.944 230.433 165.884 229.347 165.213Z" fill="#B55B52"/>
<path d="M183.897 185.643L185.58 187.443C185.891 187.779 186.278 188.036 186.709 188.192C187.139 188.349 187.601 188.401 188.055 188.343L192.357 187.776C193.204 187.662 194.012 187.35 194.714 186.863C195.417 186.376 195.994 185.73 196.398 184.977L196.902 184.077C194.319 180.891 189.18 179.343 189.18 179.343L187.758 178.74C187.471 178.607 187.161 178.532 186.845 178.52C186.529 178.508 186.214 178.559 185.918 178.671C185.622 178.782 185.351 178.952 185.122 179.169C184.892 179.387 184.708 179.648 184.581 179.937L183.348 182.727C183.152 183.215 183.099 183.749 183.196 184.265C183.293 184.782 183.537 185.26 183.897 185.643Z" fill="#B55B52"/>
<path d="M228.465 160.011C222.354 161.163 219.114 166.311 213.102 177.165C214.497 181.206 223.983 185.067 223.983 185.067C223.983 185.067 238.5 167.895 228.465 160.011Z" fill="#263238"/>
<path d="M252 202.896C252.147 205.456 252.447 208.004 252.9 210.528H222.075L221.751 202.662C221.751 202.662 245.565 201.312 252 202.896Z" fill="#B55B52"/>
<path d="M218.781 170.82C218.598 175.566 218.67 180.319 218.997 185.058C219.258 191.241 218.097 192.762 218.997 202.896C222.381 204.885 244.665 204.804 255.627 203.391C254.961 194.616 254.142 188.703 260.082 168.975C261.459 164.403 258.39 159.975 253.485 159.534C252.171 159.417 250.785 159.309 249.354 159.246C244.35 158.908 239.328 158.908 234.324 159.246C232.695 159.381 231.003 159.579 229.383 159.786C223.569 160.551 218.961 165.339 218.781 170.82Z" fill="#263238"/>
<path d="M248.328 142.344C247.023 147.177 245.412 156.033 248.553 159.264C248.553 159.264 250.965 163.764 236.709 163.062C226.728 162.549 233.532 159.264 233.532 159.264C239.013 157.977 239.175 153.972 238.518 150.219L248.328 142.344Z" fill="#B55B52"/>
<path opacity="0.2" d="M244.323 145.557L238.5 150.21C238.671 151.1 238.762 152.004 238.77 152.91C240.849 152.613 243.846 150.345 244.224 148.194C244.422 147.329 244.456 146.434 244.323 145.557Z" fill="black"/>
<path d="M252.531 133.677C251.154 141.03 250.731 144.162 246.528 147.681C240.228 152.991 231.552 150.183 230.724 142.686C229.977 135.945 232.362 125.055 239.931 122.625C241.541 122.048 243.275 121.913 244.955 122.233C246.635 122.552 248.198 123.315 249.484 124.443C250.769 125.57 251.729 127.021 252.265 128.645C252.801 130.268 252.893 132.006 252.531 133.677Z" fill="#B55B52"/>
<path d="M249.849 133.2C246.978 137.799 249.849 140.085 249.849 140.085L253.17 136.8L249.849 133.2Z" fill="#263238"/>
<path d="M233.856 141.813C233.856 141.813 237.906 141.363 241.956 140.958C240.012 143.721 234.774 144.774 233.856 141.813Z" fill="white"/>
<path d="M240.885 134.901C240.795 135.522 240.399 135.999 239.985 135.972C239.571 135.945 239.337 135.414 239.427 134.793C239.517 134.172 239.913 133.695 240.327 133.722C240.741 133.749 240.975 134.28 240.885 134.901Z" fill="#263238"/>
<path d="M233.379 134.46C233.289 135.081 232.893 135.558 232.479 135.531C232.065 135.504 231.831 134.973 231.921 134.352C232.011 133.731 232.407 133.245 232.821 133.281C233.235 133.317 233.469 133.839 233.379 134.46Z" fill="#263238"/>
<path d="M232.992 133.326L231.588 132.786C231.588 132.786 232.2 134.01 232.992 133.326Z" fill="#263238"/>
<path d="M235.323 135.63C234.574 137.011 233.651 138.29 232.578 139.437C232.863 139.688 233.202 139.87 233.569 139.97C233.935 140.07 234.32 140.085 234.693 140.013L235.323 135.63Z" fill="#A02724"/>
<path d="M253.575 139.95C253.339 140.626 252.964 141.245 252.476 141.768C251.989 142.292 251.397 142.709 250.74 142.992C249.084 143.613 248.148 141.741 248.517 139.734C248.85 137.934 250.11 135.423 251.82 135.684C253.53 135.945 254.259 138.15 253.575 139.95Z" fill="#B55B52"/>
<path d="M239.796 121.761C237.699 126.999 253.044 135.261 253.827 141.714C257.652 135.288 253.962 116.856 239.796 121.761Z" fill="#263238"/>
<path d="M240.723 121.5C235.377 122.949 233.856 126.9 233.856 126.9C233.856 126.9 244.899 124.101 240.723 121.5Z" fill="#263238"/>
<path d="M243 131.562C242.952 131.563 242.904 131.553 242.86 131.533C242.817 131.512 242.778 131.482 242.748 131.445C242.455 131.11 242.084 130.853 241.668 130.696C241.252 130.539 240.804 130.487 240.363 130.545C240.318 130.554 240.271 130.554 240.226 130.544C240.182 130.534 240.139 130.515 240.102 130.488C240.065 130.461 240.034 130.426 240.01 130.386C239.987 130.347 239.972 130.303 239.967 130.257C239.954 130.16 239.978 130.061 240.035 129.98C240.091 129.9 240.177 129.845 240.273 129.825C240.83 129.746 241.398 129.806 241.926 130.001C242.454 130.196 242.925 130.519 243.297 130.941C243.358 131.017 243.388 131.114 243.38 131.211C243.371 131.308 243.325 131.399 243.252 131.463C243.18 131.521 243.092 131.556 243 131.562Z" fill="#263238"/>
<path d="M231.957 129.6C231.912 129.606 231.865 129.602 231.822 129.588C231.778 129.574 231.738 129.551 231.705 129.519C231.671 129.486 231.644 129.446 231.626 129.402C231.607 129.357 231.598 129.31 231.598 129.263C231.598 129.215 231.607 129.168 231.626 129.123C231.644 129.079 231.671 129.039 231.705 129.006C232.082 128.551 232.56 128.189 233.1 127.949C233.64 127.708 234.228 127.596 234.819 127.62C234.865 127.626 234.909 127.642 234.949 127.666C234.989 127.691 235.023 127.723 235.05 127.76C235.077 127.798 235.096 127.841 235.106 127.887C235.116 127.932 235.116 127.979 235.107 128.025C235.088 128.121 235.034 128.207 234.956 128.266C234.879 128.326 234.782 128.355 234.684 128.349C234.217 128.337 233.754 128.432 233.329 128.627C232.905 128.822 232.531 129.112 232.236 129.474C232.2 129.512 232.157 129.543 232.109 129.565C232.061 129.587 232.01 129.599 231.957 129.6Z" fill="#263238"/>
<path d="M240.498 133.767L239.094 133.227C239.094 133.227 239.679 134.451 240.498 133.767Z" fill="#263238"/>
<path d="M245.727 190.215H237.096L236.376 176.085H246.447L245.727 190.215Z" fill="#407BFF"/>
<path d="M243.045 186.642H236.88L236.556 179.703H243.045V186.642Z" fill="white"/>
<path d="M246.987 175.41H245.88L245.7 174.69H237.114L236.934 175.41H235.836L235.485 176.769H247.329L246.987 175.41Z" fill="white"/>
<path d="M243 179.1L245.457 178.893C245.914 178.854 246.373 178.924 246.797 179.098C247.221 179.272 247.598 179.544 247.896 179.892L250.704 183.204C251.259 183.855 251.65 184.629 251.842 185.463C252.035 186.296 252.024 187.164 251.811 187.992L251.55 189.027C247.491 189.657 242.649 187.344 242.649 187.344L241.2 186.84C240.898 186.745 240.619 186.591 240.377 186.387C240.136 186.183 239.937 185.933 239.793 185.652C239.649 185.37 239.563 185.063 239.538 184.748C239.514 184.433 239.553 184.116 239.652 183.816L240.615 180.918C240.795 180.418 241.116 179.98 241.539 179.657C241.962 179.335 242.47 179.141 243 179.1Z" fill="#B55B52"/>
<path d="M267.552 187.938C267.404 185.679 267.103 183.433 266.652 181.215C266.217 179.025 265.658 176.862 264.978 174.735C264.627 173.682 264.258 172.629 263.862 171.585C263.655 171.063 263.457 170.532 263.232 170.01C263.007 169.488 262.791 169.002 262.485 168.372C261.947 167.166 260.954 166.223 259.722 165.748C258.49 165.272 257.121 165.304 255.912 165.836C254.704 166.367 253.755 167.356 253.273 168.585C252.791 169.814 252.816 171.184 253.341 172.395L253.44 172.656L253.926 173.853L254.439 175.167C254.781 176.067 255.087 176.967 255.384 177.867C255.987 179.667 256.509 181.512 256.977 183.348C257.445 185.184 257.778 187.038 258.048 188.874C258.102 189.225 258.138 189.567 258.183 189.918L258.093 189.855C256.941 189 255.789 188.055 254.637 187.074L251.172 184.104L251.109 184.05C250.662 183.673 250.097 183.463 249.512 183.457C248.927 183.45 248.358 183.647 247.903 184.014C247.447 184.382 247.134 184.896 247.016 185.469C246.898 186.042 246.983 186.638 247.257 187.155C248.046 188.605 248.915 190.012 249.858 191.367C250.798 192.734 251.813 194.047 252.9 195.3C253.467 195.948 254.079 196.578 254.7 197.217C255.426 197.919 256.219 198.549 257.067 199.098C257.613 199.452 258.192 199.754 258.795 199.998C259.721 200.379 260.721 200.545 261.72 200.484C262.462 200.438 263.189 200.252 263.862 199.935C264.543 199.597 265.154 199.133 265.662 198.567C266.379 197.765 266.905 196.811 267.201 195.777C267.275 195.559 267.32 195.332 267.336 195.102V194.832C267.591 192.543 267.663 190.238 267.552 187.938Z" fill="#B55B52"/>
<path d="M253.8 159.615C259.2 160.443 261.351 162.081 265.752 172.908C263.754 176.949 254.394 180.81 254.394 180.81C254.394 180.81 248.22 166.788 253.8 159.615Z" fill="#263238"/>
<path d="M221.688 212.886C232.732 214.107 243.877 214.086 254.916 212.823C255.032 212.806 255.142 212.762 255.238 212.694C255.334 212.627 255.413 212.539 255.469 212.436C255.525 212.333 255.556 212.218 255.56 212.101C255.564 211.984 255.541 211.868 255.492 211.761C255.222 211.131 254.952 210.492 254.691 209.853C254.635 209.711 254.535 209.592 254.405 209.512C254.275 209.433 254.123 209.397 253.971 209.412C243.356 210.586 232.645 210.586 222.03 209.412C221.935 209.403 221.84 209.414 221.749 209.443C221.658 209.472 221.574 209.519 221.502 209.581C221.43 209.643 221.371 209.719 221.329 209.805C221.286 209.89 221.262 209.983 221.256 210.078C221.193 210.744 221.121 211.401 221.058 212.058C221.032 212.251 221.084 212.447 221.202 212.602C221.32 212.757 221.495 212.859 221.688 212.886Z" fill="#263238"/>
<path d="M303.53 371.42C309.974 370.925 314.33 366.497 313.862 361.817C313.61 359.225 321.872 359 321.872 359C320.567 367.01 322.205 368.153 322.772 370.223C323.339 372.293 323.177 374.579 321.467 374.624C319.424 374.678 318.47 374.282 315.923 374.381C312.953 374.498 309.74 374.615 304.457 374.624C302.315 374.633 300.668 371.672 303.53 371.42Z" fill="#27AE3D"/>
<path d="M294.444 220.5C294.444 220.5 295.596 258.048 301.068 286.335C302.364 310.275 313.668 362.907 313.668 362.907C316.489 363.573 319.429 363.545 322.236 362.826C322.236 362.826 327.951 324.378 322.236 285.93C326.412 245.628 324.99 220.5 324.99 220.5H294.444Z" fill="#263238"/>
<path opacity="0.2" d="M325.197 239.211C324.999 250.479 324.297 266.436 322.272 285.957C322.695 288.837 323.037 291.735 323.298 294.606C309.294 271.431 306 234.801 325.197 239.211Z" fill="black"/>
<path d="M371.376 359.1C369.02 356.577 367.021 353.743 365.436 350.676C365.436 350.676 358.065 352.476 359.514 354.618C362.142 358.479 363.42 366.399 360.036 370.656C358.101 373.077 361.161 373.482 363.177 372.456C366.39 370.8 366.255 370.188 367.929 367.461C369.351 365.121 369.918 364.203 371.88 363.204C373.5 362.331 372.726 360.711 371.376 359.1Z" fill="#27AE3D"/>
<path d="M305.577 220.5C305.577 220.5 317.997 272.7 325.827 294.966C334.053 318.366 358.227 354.483 359.127 356.04C362.358 355.14 365.238 354.051 367.155 352.17C367.155 352.17 357.948 314.703 347.553 289.287C343.593 236.268 330.246 220.5 330.246 220.5H305.577Z" fill="#263238"/>
<path d="M269.217 171.9L268.632 168.84C268.415 167.731 267.912 166.698 267.174 165.843L265.788 164.223C265.341 163.704 264.726 163.358 264.051 163.244C263.375 163.131 262.681 163.257 262.089 163.602L260.289 164.673C259.953 164.868 259.66 165.128 259.425 165.438C259.191 165.747 259.021 166.1 258.925 166.477C258.828 166.853 258.808 167.244 258.864 167.628C258.921 168.013 259.053 168.382 259.254 168.714L260.154 170.271C260.154 170.271 262.215 174.888 265.752 176.814L266.652 176.175C267.385 175.714 267.999 175.086 268.445 174.344C268.891 173.601 269.155 172.764 269.217 171.9Z" fill="#7F3E3B"/>
<path d="M301.815 176.499C301.175 176.146 300.471 175.923 299.744 175.842C299.017 175.762 298.282 175.825 297.58 176.029C296.877 176.233 296.222 176.574 295.652 177.031C295.081 177.489 294.607 178.054 294.255 178.695C294.255 178.641 294.21 178.758 294.174 178.803L294.03 179.019L293.697 179.487C293.472 179.802 293.238 180.126 292.986 180.441C292.482 181.071 291.96 181.701 291.411 182.241C290.352 183.386 289.172 184.412 287.892 185.301C286.692 186.131 285.38 186.786 283.995 187.245C283.311 187.459 282.614 187.628 281.907 187.749C281.778 187.758 281.649 187.758 281.52 187.749C281.203 187.531 280.903 187.29 280.62 187.029C279.989 186.442 279.388 185.823 278.82 185.175C277.614 183.825 276.453 182.295 275.283 180.756C272.961 177.66 270.684 174.366 268.407 171.144L268.362 171.081C267.972 170.544 267.404 170.163 266.758 170.008C266.113 169.852 265.434 169.931 264.842 170.232C264.25 170.532 263.784 171.033 263.529 171.646C263.273 172.259 263.245 172.942 263.448 173.574C264.777 177.525 266.395 181.372 268.29 185.085C269.263 187.007 270.339 188.876 271.512 190.683C272.133 191.583 272.799 192.537 273.582 193.491C274.483 194.608 275.534 195.595 276.705 196.425C277.706 197.116 278.845 197.579 280.044 197.784C280.258 197.82 280.475 197.841 280.692 197.847H281.025H281.7C282.024 197.847 282.348 197.847 282.672 197.847C283.973 197.8 285.268 197.641 286.542 197.37C289.063 196.823 291.477 195.865 293.688 194.535C295.816 193.274 297.765 191.733 299.484 189.954C300.322 189.098 301.112 188.197 301.851 187.254C302.22 186.777 302.571 186.282 302.922 185.769L303.426 184.968L303.678 184.545L303.975 184.014C304.674 182.729 304.839 181.22 304.435 179.814C304.031 178.408 303.09 177.217 301.815 176.499Z" fill="#7F3E3B"/>
<path d="M292.977 183.969C293.112 187.02 288.288 194.085 294.237 198.18C293.13 200.664 292.185 217.512 294.444 220.527C297.729 222.939 315.504 222.471 330.246 220.527C330.867 214.434 327.546 201.816 331.623 182.133C331.85 181.056 331.847 179.943 331.615 178.867C331.383 177.791 330.927 176.776 330.276 175.888C329.626 175 328.796 174.259 327.84 173.713C326.884 173.167 325.824 172.828 324.729 172.719C323.487 172.593 322.182 172.485 320.832 172.422C316.137 172.084 311.424 172.084 306.729 172.422C305.208 172.557 303.633 172.755 302.13 172.962C299.511 173.335 297.124 174.668 295.432 176.702C293.741 178.736 292.866 181.326 292.977 183.969Z" fill="#177326"/>
<path d="M321.3 156.546C320.175 161.046 319.077 168.48 320.868 172.422C320.868 172.422 313.2 173.457 304.668 180.288C303.219 173.43 306.27 172.467 306.27 172.467C309.87 171.639 310.392 167.31 310.392 163.935L321.3 156.546Z" fill="#7F3E3B"/>
<path opacity="0.2" d="M310.329 163.935L316.548 159.732C316.604 160.683 316.412 161.632 315.99 162.486C314.682 164.939 312.55 166.852 309.969 167.886C310.226 166.585 310.346 165.261 310.329 163.935Z" fill="black"/>
<path d="M324.225 148.221C322.425 155.601 321.858 158.76 317.484 161.937C310.905 166.707 302.409 162.945 301.986 155.187C301.599 148.203 304.56 137.313 312.246 135.612C319.932 133.911 325.989 140.841 324.225 148.221Z" fill="#7F3E3B"/>
<path d="M322.632 152.577C319.455 148.293 321.012 144.891 322.632 143.676C316.134 141.579 308.394 143.1 306.63 139.176C307.809 133.605 309.627 128.376 312.723 123.975C316.692 118.359 333.783 127.764 336.978 138.69C338.067 142.335 324.531 156.87 322.632 152.577Z" fill="#263238"/>
<path d="M312.3 149.013C312.192 149.625 311.778 150.057 311.4 149.985C311.022 149.913 310.77 149.364 310.878 148.761C310.986 148.158 311.391 147.717 311.778 147.789C312.165 147.861 312.435 148.41 312.3 149.013Z" fill="#263238"/>
<path d="M304.839 147.798C304.731 148.401 304.317 148.842 303.939 148.77C303.561 148.698 303.309 148.149 303.417 147.546C303.525 146.943 303.939 146.502 304.317 146.574C304.695 146.646 304.947 147.195 304.839 147.798Z" fill="#263238"/>
<path d="M304.479 146.637L303.102 145.953C303.102 145.953 303.642 147.231 304.479 146.637Z" fill="#263238"/>
<path d="M306.648 148.293C305.862 149.58 304.906 150.755 303.804 151.785C304.073 152.061 304.4 152.275 304.76 152.412C305.121 152.549 305.507 152.605 305.892 152.577L306.648 148.293Z" fill="#630F0F"/>
<path d="M324.765 155.097C324.487 155.733 324.077 156.303 323.561 156.768C323.046 157.234 322.438 157.585 321.777 157.797C320.085 158.265 319.257 156.411 319.734 154.539C320.166 152.856 321.534 150.579 323.244 150.939C324.954 151.299 325.539 153.441 324.765 155.097Z" fill="#7F3E3B"/>
<path d="M324.108 159.345C324.108 159.806 323.971 160.257 323.715 160.64C323.459 161.023 323.095 161.322 322.669 161.499C322.243 161.675 321.774 161.721 321.322 161.631C320.87 161.541 320.455 161.319 320.129 160.993C319.803 160.667 319.581 160.252 319.491 159.8C319.401 159.348 319.447 158.879 319.623 158.453C319.8 158.027 320.099 157.663 320.482 157.407C320.865 157.151 321.316 157.014 321.777 157.014C322.395 157.014 322.988 157.26 323.425 157.697C323.862 158.134 324.108 158.727 324.108 159.345Z" fill="#407BFF"/>
<path d="M314.361 146.7C314.313 146.686 314.27 146.662 314.232 146.629C314.195 146.597 314.165 146.556 314.145 146.511C313.951 146.1 313.663 145.739 313.306 145.458C312.948 145.177 312.53 144.983 312.084 144.891C311.99 144.88 311.904 144.832 311.845 144.758C311.786 144.684 311.759 144.589 311.769 144.495C311.782 144.4 311.832 144.313 311.907 144.253C311.982 144.192 312.078 144.163 312.174 144.171C312.741 144.274 313.274 144.512 313.73 144.865C314.186 145.217 314.55 145.674 314.793 146.196C314.814 146.238 314.827 146.283 314.831 146.33C314.834 146.377 314.828 146.424 314.813 146.469C314.798 146.513 314.774 146.554 314.743 146.589C314.711 146.624 314.673 146.653 314.631 146.673C314.548 146.717 314.451 146.727 314.361 146.7Z" fill="#263238"/>
<path d="M302.607 143.811C302.562 143.806 302.519 143.791 302.48 143.768C302.441 143.745 302.408 143.713 302.382 143.676C302.324 143.601 302.298 143.505 302.309 143.411C302.321 143.317 302.37 143.231 302.445 143.172C302.895 142.812 303.425 142.565 303.991 142.452C304.556 142.339 305.14 142.364 305.694 142.524C305.785 142.556 305.859 142.623 305.9 142.71C305.942 142.797 305.947 142.897 305.915 142.987C305.882 143.078 305.815 143.152 305.728 143.194C305.642 143.235 305.542 143.24 305.451 143.208C305.011 143.087 304.549 143.073 304.103 143.167C303.657 143.261 303.24 143.46 302.886 143.748C302.847 143.778 302.802 143.799 302.753 143.81C302.705 143.821 302.655 143.821 302.607 143.811Z" fill="#263238"/>
<path d="M311.967 147.852L310.59 147.177C310.59 147.177 311.13 148.446 311.967 147.852Z" fill="#263238"/>
<path opacity="0.2" d="M330.912 185.949C330.195 190.133 329.759 194.361 329.607 198.603C326.214 193.896 322.362 185.364 322.578 181.377L330.912 185.949Z" fill="black"/>
<path d="M309.924 198.801L306.864 194.688L301.239 200.934C301.239 200.934 304.983 204.309 308.907 204.651L309.474 203.697C309.925 202.972 310.201 202.152 310.279 201.302C310.357 200.452 310.235 199.596 309.924 198.801Z" fill="#7F3E3B"/>
<path d="M301.221 194.4L299.556 196.821C299.193 197.351 299.054 198.002 299.169 198.634C299.283 199.266 299.642 199.827 300.168 200.196L301.239 200.943L306.864 194.697L304.2 193.5C303.676 193.281 303.093 193.252 302.549 193.416C302.006 193.58 301.536 193.928 301.221 194.4Z" fill="#7F3E3B"/>
<path d="M335.214 192.942C334.819 190.425 334.275 187.934 333.585 185.481C333.243 184.266 332.874 183.069 332.478 181.881C332.28 181.278 332.082 180.684 331.866 180.081C331.65 179.478 331.425 178.929 331.137 178.227C330.617 176.846 329.569 175.729 328.225 175.12C326.88 174.512 325.349 174.462 323.969 174.982C322.588 175.503 321.47 176.55 320.862 177.895C320.253 179.239 320.204 180.77 320.724 182.151L320.796 182.349L321.3 183.816L321.822 185.373C322.164 186.417 322.488 187.47 322.785 188.532C323.397 190.638 323.91 192.753 324.342 194.832C324.75 196.836 325.015 198.866 325.134 200.907C325.173 201.886 325.143 202.866 325.044 203.841H324.9C323.285 203.574 321.693 203.183 320.139 202.671C318.465 202.158 316.764 201.537 315.054 200.871C313.344 200.205 311.607 199.53 309.924 198.882H309.816C309.203 198.65 308.529 198.641 307.91 198.857C307.292 199.072 306.769 199.498 306.433 200.06C306.097 200.623 305.97 201.285 306.073 201.932C306.177 202.579 306.504 203.169 306.999 203.598C308.506 204.88 310.081 206.082 311.715 207.198C313.363 208.336 315.07 209.387 316.827 210.348C318.716 211.395 320.706 212.248 322.767 212.895C324.043 213.29 325.365 213.52 326.7 213.579C327.625 213.619 328.551 213.516 329.445 213.273C330.718 212.932 331.885 212.276 332.838 211.365C333.244 210.961 333.571 210.485 333.801 209.961L333.882 209.79C335.081 206.984 335.714 203.968 335.745 200.916C335.809 198.247 335.631 195.579 335.214 192.942Z" fill="#7F3E3B"/>
<path d="M304.47 154.395C307.09 154.205 309.72 154.229 312.336 154.467C311.526 155.898 310.167 157.023 307.206 156.825C304.245 156.627 304.47 154.395 304.47 154.395Z" fill="#263238"/>
<path d="M308.7 155.745C307.578 155.617 306.442 155.797 305.415 156.267C305.953 156.611 306.576 156.801 307.215 156.816C308.333 156.946 309.466 156.769 310.491 156.303C309.955 155.959 309.336 155.766 308.7 155.745Z" fill="#630F0F"/>
<path d="M304.731 154.368C304.786 154.564 304.895 154.74 305.044 154.878C305.193 155.016 305.378 155.111 305.577 155.151C307.289 155.257 309.007 155.239 310.716 155.097C310.978 155.104 311.238 155.05 311.476 154.939C311.713 154.829 311.921 154.664 312.084 154.458C309.638 154.265 307.181 154.235 304.731 154.368Z" fill="white"/>
<path d="M303.939 173.025C303.858 173.024 303.781 172.992 303.723 172.935C303.697 172.906 303.676 172.872 303.66 172.836C303.651 172.801 303.651 172.763 303.66 172.728C303.66 172.648 303.688 172.572 303.741 172.512C303.77 172.486 303.804 172.465 303.84 172.449C303.913 172.422 303.992 172.422 304.065 172.449C304.101 172.465 304.135 172.486 304.164 172.512C304.193 172.539 304.215 172.573 304.227 172.611C304.236 172.649 304.236 172.69 304.227 172.728C304.235 172.764 304.235 172.8 304.227 172.836C304.215 172.874 304.193 172.908 304.164 172.935C304.135 172.965 304.1 172.988 304.061 173.004C304.022 173.019 303.981 173.027 303.939 173.025Z" fill="white"/>
<path d="M301.5 189C301.5 188.92 301.531 188.844 301.586 188.787C301.642 188.73 301.717 188.696 301.797 188.694C301.876 188.694 301.951 188.725 302.007 188.781C302.063 188.837 302.094 188.912 302.094 188.991C302.094 189.071 302.063 189.147 302.008 189.204C301.952 189.261 301.877 189.295 301.797 189.297C301.718 189.297 301.643 189.266 301.587 189.21C301.531 189.154 301.5 189.079 301.5 189ZM303.084 188.874C303.075 188.836 303.073 188.796 303.079 188.757C303.086 188.718 303.1 188.68 303.121 188.647C303.142 188.613 303.169 188.584 303.202 188.561C303.234 188.539 303.27 188.522 303.309 188.514C303.386 188.5 303.466 188.515 303.533 188.557C303.599 188.598 303.648 188.663 303.669 188.739C303.683 188.817 303.666 188.898 303.623 188.965C303.579 189.032 303.512 189.08 303.435 189.099H303.3C303.24 189.094 303.182 189.07 303.136 189.032C303.089 188.993 303.055 188.941 303.039 188.883L303.084 188.874ZM300.141 189.036C300.104 189.024 300.069 189.004 300.039 188.979C300.01 188.953 299.985 188.922 299.968 188.886C299.95 188.851 299.94 188.813 299.937 188.774C299.934 188.735 299.939 188.695 299.952 188.658C299.964 188.62 299.984 188.584 300.01 188.553C300.036 188.523 300.069 188.498 300.105 188.48C300.141 188.463 300.181 188.453 300.221 188.451C300.261 188.449 300.301 188.455 300.339 188.469C300.413 188.495 300.473 188.55 300.507 188.621C300.541 188.692 300.545 188.773 300.519 188.847C300.499 188.906 300.462 188.957 300.412 188.994C300.362 189.031 300.302 189.052 300.24 189.054L300.141 189.036ZM304.641 188.433C304.611 188.36 304.612 188.279 304.642 188.206C304.672 188.133 304.73 188.076 304.803 188.046C304.876 188.016 304.957 188.017 305.03 188.047C305.103 188.077 305.16 188.135 305.19 188.208C305.22 188.28 305.221 188.36 305.193 188.433C305.164 188.505 305.108 188.563 305.037 188.595H304.92C304.852 188.614 304.779 188.609 304.713 188.581C304.648 188.553 304.594 188.504 304.56 188.442L304.641 188.433ZM298.728 188.127C298.7 188.099 298.678 188.066 298.663 188.03C298.647 187.994 298.64 187.955 298.64 187.915C298.64 187.876 298.647 187.837 298.663 187.801C298.678 187.765 298.7 187.732 298.728 187.704C298.756 187.676 298.789 187.654 298.825 187.638C298.861 187.623 298.9 187.615 298.939 187.615C298.979 187.615 299.018 187.623 299.054 187.638C299.09 187.654 299.123 187.676 299.151 187.704C299.18 187.731 299.203 187.764 299.219 187.8C299.235 187.836 299.244 187.876 299.244 187.915C299.244 187.955 299.235 187.994 299.219 188.031C299.203 188.067 299.18 188.1 299.151 188.127C299.125 188.156 299.094 188.18 299.058 188.195C299.022 188.211 298.983 188.218 298.944 188.217C298.888 188.232 298.83 188.228 298.776 188.207C298.723 188.186 298.678 188.148 298.647 188.1L298.728 188.127ZM306.072 187.74C306.051 187.707 306.037 187.67 306.03 187.632C306.024 187.593 306.026 187.554 306.035 187.516C306.044 187.478 306.061 187.443 306.084 187.412C306.108 187.38 306.137 187.354 306.171 187.335C306.204 187.314 306.241 187.3 306.279 187.293C306.317 187.287 306.357 187.288 306.395 187.298C306.433 187.307 306.468 187.324 306.499 187.347C306.53 187.371 306.557 187.4 306.576 187.434C306.597 187.467 306.611 187.504 306.618 187.542C306.624 187.58 306.622 187.62 306.613 187.658C306.604 187.696 306.587 187.731 306.564 187.762C306.54 187.793 306.511 187.82 306.477 187.839C306.431 187.867 306.378 187.883 306.324 187.884C306.263 187.902 306.197 187.898 306.138 187.874C306.079 187.849 306.03 187.805 306 187.749L306.072 187.74ZM307.386 186.84C307.338 186.776 307.317 186.696 307.327 186.618C307.337 186.539 307.378 186.467 307.44 186.417C307.47 186.392 307.505 186.374 307.543 186.364C307.581 186.353 307.62 186.35 307.659 186.355C307.697 186.36 307.735 186.373 307.768 186.393C307.802 186.413 307.831 186.439 307.854 186.471C307.902 186.532 307.925 186.61 307.916 186.687C307.908 186.765 307.869 186.836 307.809 186.885C307.755 186.927 307.688 186.949 307.62 186.948C307.565 186.965 307.507 186.967 307.451 186.953C307.395 186.938 307.345 186.909 307.305 186.867L307.386 186.84ZM297.81 186.678C297.777 186.615 297.768 186.542 297.785 186.472C297.801 186.403 297.842 186.342 297.9 186.3C297.937 186.285 297.976 186.278 298.015 186.279C298.054 186.28 298.093 186.289 298.129 186.304C298.165 186.32 298.198 186.343 298.225 186.372C298.252 186.4 298.273 186.434 298.287 186.471C298.314 186.545 298.311 186.627 298.279 186.699C298.247 186.771 298.189 186.828 298.116 186.858H298.008C297.952 186.86 297.896 186.848 297.847 186.821C297.798 186.794 297.757 186.754 297.729 186.705L297.81 186.678ZM308.61 185.778C308.556 185.721 308.525 185.645 308.525 185.566C308.525 185.488 308.556 185.412 308.61 185.355C308.667 185.3 308.743 185.27 308.822 185.27C308.9 185.27 308.976 185.3 309.033 185.355C309.061 185.383 309.083 185.416 309.098 185.452C309.114 185.488 309.121 185.527 309.121 185.566C309.121 185.606 309.114 185.645 309.098 185.681C309.083 185.717 309.061 185.75 309.033 185.778C309.006 185.804 308.973 185.825 308.938 185.839C308.902 185.853 308.864 185.86 308.826 185.859C308.778 185.883 308.724 185.894 308.671 185.891C308.617 185.888 308.565 185.871 308.52 185.841L308.61 185.778ZM297.441 185.022C297.433 184.942 297.457 184.863 297.508 184.8C297.558 184.738 297.631 184.698 297.711 184.689C297.789 184.684 297.867 184.709 297.927 184.759C297.987 184.809 298.026 184.881 298.035 184.959C298.04 184.998 298.037 185.038 298.026 185.076C298.015 185.114 297.996 185.149 297.971 185.18C297.945 185.21 297.914 185.235 297.879 185.253C297.843 185.271 297.805 185.281 297.765 185.283C297.725 185.302 297.682 185.311 297.638 185.311C297.594 185.311 297.551 185.301 297.511 185.282C297.472 185.263 297.437 185.235 297.409 185.201C297.381 185.167 297.362 185.128 297.351 185.085L297.441 185.022ZM309.744 184.662C309.716 184.634 309.694 184.601 309.679 184.565C309.663 184.529 309.656 184.49 309.656 184.45C309.656 184.411 309.663 184.372 309.679 184.336C309.694 184.3 309.716 184.267 309.744 184.239C309.772 184.211 309.805 184.189 309.841 184.173C309.877 184.158 309.916 184.15 309.955 184.15C309.995 184.15 310.034 184.158 310.07 184.173C310.106 184.189 310.139 184.211 310.167 184.239C310.195 184.267 310.217 184.3 310.232 184.336C310.248 184.372 310.255 184.411 310.255 184.45C310.255 184.49 310.248 184.529 310.232 184.565C310.217 184.601 310.195 184.634 310.167 184.662C310.14 184.692 310.106 184.715 310.069 184.731C310.032 184.746 309.991 184.753 309.951 184.752C309.903 184.772 309.851 184.781 309.799 184.776C309.747 184.771 309.697 184.754 309.654 184.725L309.744 184.662ZM297.72 183.699C297.643 183.69 297.572 183.651 297.523 183.59C297.474 183.53 297.451 183.452 297.459 183.375C297.461 183.335 297.471 183.297 297.489 183.261C297.507 183.226 297.532 183.195 297.562 183.169C297.593 183.144 297.628 183.125 297.666 183.114C297.704 183.103 297.744 183.1 297.783 183.105C297.86 183.114 297.931 183.153 297.98 183.214C298.029 183.274 298.052 183.352 298.044 183.429C298.037 183.503 298.003 183.572 297.948 183.622C297.893 183.672 297.821 183.699 297.747 183.699H297.72ZM310.824 183.483C310.796 183.456 310.774 183.424 310.759 183.388C310.744 183.353 310.736 183.315 310.736 183.276C310.736 183.237 310.744 183.199 310.759 183.164C310.774 183.128 310.796 183.096 310.824 183.069C310.881 183.014 310.957 182.984 311.036 182.984C311.114 182.984 311.19 183.014 311.247 183.069C311.275 183.097 311.297 183.13 311.312 183.166C311.328 183.202 311.335 183.241 311.335 183.28C311.335 183.32 311.328 183.359 311.312 183.395C311.297 183.431 311.275 183.464 311.247 183.492C311.221 183.527 311.187 183.555 311.148 183.574C311.109 183.592 311.065 183.601 311.022 183.6C310.974 183.62 310.921 183.625 310.87 183.615C310.819 183.606 310.772 183.582 310.734 183.546L310.824 183.483ZM311.859 182.277C311.828 182.252 311.802 182.222 311.783 182.187C311.764 182.153 311.751 182.114 311.747 182.075C311.743 182.036 311.747 181.996 311.758 181.958C311.77 181.92 311.789 181.884 311.814 181.854C311.842 181.826 311.875 181.804 311.911 181.788C311.947 181.773 311.986 181.765 312.026 181.765C312.065 181.765 312.104 181.773 312.14 181.788C312.176 181.804 312.209 181.826 312.237 181.854C312.265 181.882 312.287 181.915 312.302 181.951C312.318 181.987 312.325 182.026 312.325 182.065C312.325 182.105 312.318 182.144 312.302 182.18C312.287 182.216 312.265 182.249 312.237 182.277C312.21 182.311 312.176 182.338 312.137 182.357C312.098 182.375 312.055 182.385 312.012 182.385C311.971 182.396 311.927 182.398 311.885 182.39C311.843 182.382 311.804 182.365 311.769 182.34L311.859 182.277ZM297.9 182.187C297.862 182.179 297.825 182.162 297.793 182.14C297.761 182.117 297.734 182.087 297.714 182.054C297.694 182.02 297.681 181.982 297.676 181.943C297.67 181.904 297.673 181.865 297.684 181.827C297.692 181.789 297.708 181.752 297.731 181.72C297.754 181.688 297.784 181.661 297.817 181.641C297.851 181.621 297.889 181.608 297.928 181.603C297.967 181.597 298.006 181.6 298.044 181.611C298.12 181.63 298.186 181.679 298.227 181.746C298.267 181.814 298.279 181.895 298.26 181.971C298.244 182.035 298.207 182.092 298.155 182.133C298.103 182.174 298.038 182.196 297.972 182.196H297.9V182.187ZM312.813 181.116C312.759 181.059 312.728 180.983 312.728 180.904C312.728 180.826 312.759 180.75 312.813 180.693C312.864 180.632 312.936 180.593 313.015 180.585C313.094 180.577 313.173 180.599 313.236 180.648C313.264 180.676 313.286 180.709 313.301 180.745C313.317 180.781 313.325 180.82 313.325 180.859C313.325 180.899 313.317 180.938 313.301 180.974C313.286 181.01 313.264 181.043 313.236 181.071C313.209 181.105 313.175 181.132 313.136 181.151C313.097 181.169 313.054 181.179 313.011 181.179C312.97 181.185 312.928 181.183 312.887 181.172C312.847 181.162 312.809 181.142 312.777 181.116H312.813ZM298.341 180.657C298.304 180.645 298.269 180.625 298.24 180.6C298.21 180.574 298.186 180.542 298.17 180.507C298.153 180.471 298.143 180.433 298.142 180.394C298.14 180.355 298.147 180.316 298.161 180.279C298.174 180.241 298.195 180.207 298.221 180.177C298.248 180.148 298.28 180.124 298.316 180.107C298.352 180.09 298.392 180.081 298.431 180.079C298.471 180.078 298.511 180.085 298.548 180.099C298.585 180.113 298.618 180.134 298.647 180.161C298.676 180.188 298.699 180.221 298.714 180.257C298.73 180.293 298.739 180.331 298.74 180.371C298.741 180.41 298.733 180.449 298.719 180.486C298.697 180.542 298.659 180.59 298.609 180.624C298.559 180.658 298.5 180.675 298.44 180.675C298.394 180.687 298.346 180.68 298.305 180.657H298.341ZM313.821 179.883C313.793 179.855 313.771 179.822 313.756 179.786C313.74 179.75 313.733 179.711 313.733 179.671C313.733 179.632 313.74 179.593 313.756 179.557C313.771 179.521 313.793 179.488 313.821 179.46C313.872 179.399 313.944 179.36 314.023 179.352C314.102 179.344 314.181 179.366 314.244 179.415C314.272 179.443 314.294 179.476 314.309 179.512C314.325 179.548 314.332 179.587 314.332 179.626C314.332 179.666 314.325 179.705 314.309 179.741C314.294 179.777 314.272 179.81 314.244 179.838C314.217 179.872 314.183 179.899 314.144 179.918C314.105 179.936 314.062 179.946 314.019 179.946C313.978 179.954 313.935 179.952 313.895 179.941C313.854 179.93 313.817 179.91 313.785 179.883H313.821ZM298.944 179.19C298.907 179.174 298.874 179.15 298.847 179.12C298.82 179.091 298.799 179.056 298.787 179.017C298.774 178.979 298.769 178.939 298.773 178.899C298.777 178.859 298.789 178.82 298.809 178.785C298.844 178.715 298.905 178.661 298.979 178.636C299.053 178.611 299.135 178.616 299.205 178.65C299.276 178.687 299.33 178.749 299.355 178.825C299.38 178.901 299.375 178.983 299.34 179.055C299.313 179.103 299.274 179.144 299.227 179.172C299.179 179.201 299.125 179.216 299.07 179.217C299.015 179.224 298.958 179.214 298.908 179.19H298.944ZM314.838 178.659C314.81 178.631 314.788 178.598 314.773 178.562C314.757 178.526 314.75 178.487 314.75 178.447C314.75 178.408 314.757 178.369 314.773 178.333C314.788 178.297 314.81 178.264 314.838 178.236C314.866 178.208 314.899 178.186 314.935 178.17C314.971 178.155 315.01 178.147 315.049 178.147C315.089 178.147 315.128 178.155 315.164 178.17C315.2 178.186 315.233 178.208 315.261 178.236C315.289 178.264 315.311 178.297 315.326 178.333C315.342 178.369 315.35 178.408 315.35 178.447C315.35 178.487 315.342 178.526 315.326 178.562C315.311 178.598 315.289 178.631 315.261 178.659C315.232 178.693 315.196 178.72 315.156 178.739C315.116 178.757 315.072 178.767 315.027 178.767C314.984 178.766 314.942 178.756 314.903 178.737C314.864 178.718 314.83 178.692 314.802 178.659H314.838ZM299.682 177.759C299.617 177.715 299.57 177.648 299.552 177.571C299.534 177.495 299.545 177.414 299.583 177.345C299.627 177.28 299.694 177.233 299.771 177.215C299.847 177.197 299.928 177.208 299.997 177.246C300.062 177.29 300.109 177.357 300.127 177.434C300.145 177.51 300.134 177.591 300.096 177.66C300.07 177.704 300.033 177.74 299.989 177.765C299.945 177.79 299.895 177.804 299.844 177.804C299.778 177.816 299.709 177.81 299.646 177.786L299.682 177.759ZM315.882 177.435C315.854 177.407 315.832 177.374 315.817 177.338C315.801 177.302 315.794 177.263 315.794 177.223C315.794 177.184 315.801 177.145 315.817 177.109C315.832 177.073 315.854 177.04 315.882 177.012C315.909 176.983 315.942 176.959 315.978 176.944C316.014 176.928 316.054 176.919 316.093 176.919C316.133 176.919 316.173 176.928 316.209 176.944C316.245 176.959 316.278 176.983 316.305 177.012C316.359 177.067 316.389 177.142 316.389 177.219C316.389 177.296 316.359 177.371 316.305 177.426C316.277 177.458 316.242 177.484 316.204 177.501C316.165 177.518 316.122 177.526 316.08 177.525C316.039 177.53 315.997 177.528 315.957 177.517C315.917 177.506 315.879 177.487 315.846 177.462L315.882 177.435ZM300.582 176.418C300.55 176.396 300.522 176.367 300.502 176.334C300.481 176.3 300.467 176.263 300.461 176.225C300.455 176.186 300.457 176.146 300.467 176.108C300.477 176.07 300.495 176.035 300.519 176.004C300.567 175.94 300.639 175.898 300.718 175.886C300.797 175.875 300.877 175.894 300.942 175.941C301.003 175.989 301.044 176.059 301.055 176.135C301.067 176.212 301.049 176.291 301.005 176.355C300.977 176.393 300.94 176.424 300.898 176.446C300.856 176.468 300.809 176.48 300.762 176.481C300.72 176.495 300.675 176.5 300.632 176.493C300.588 176.487 300.546 176.471 300.51 176.445L300.582 176.418ZM317.007 176.274C316.979 176.246 316.957 176.213 316.942 176.177C316.926 176.141 316.919 176.102 316.919 176.062C316.919 176.023 316.926 175.984 316.942 175.948C316.957 175.912 316.979 175.879 317.007 175.851C317.035 175.823 317.068 175.801 317.104 175.785C317.14 175.77 317.179 175.762 317.218 175.762C317.258 175.762 317.297 175.77 317.333 175.785C317.369 175.801 317.402 175.823 317.43 175.851C317.458 175.879 317.48 175.912 317.495 175.948C317.511 175.984 317.518 176.023 317.518 176.062C317.518 176.102 317.511 176.141 317.495 176.177C317.48 176.213 317.458 176.246 317.43 176.274C317.374 176.327 317.3 176.356 317.223 176.355C317.174 176.369 317.123 176.372 317.073 176.362C317.023 176.353 316.975 176.332 316.935 176.301L317.007 176.274ZM318.159 175.176C318.105 175.119 318.074 175.043 318.074 174.964C318.074 174.886 318.105 174.81 318.159 174.753C318.187 174.725 318.22 174.703 318.256 174.687C318.292 174.672 318.331 174.664 318.37 174.664C318.41 174.664 318.449 174.672 318.485 174.687C318.521 174.703 318.554 174.725 318.582 174.753C318.61 174.781 318.632 174.814 318.647 174.85C318.663 174.886 318.67 174.925 318.67 174.964C318.67 175.004 318.663 175.043 318.647 175.079C318.632 175.115 318.61 175.148 318.582 175.176C318.526 175.222 318.456 175.247 318.384 175.248C318.335 175.265 318.282 175.27 318.23 175.262C318.178 175.254 318.129 175.234 318.087 175.203L318.159 175.176ZM301.554 175.176C301.526 175.148 301.504 175.115 301.489 175.079C301.473 175.043 301.466 175.004 301.466 174.964C301.466 174.925 301.473 174.886 301.489 174.85C301.504 174.814 301.526 174.781 301.554 174.753C301.582 174.725 301.615 174.703 301.651 174.687C301.687 174.672 301.726 174.664 301.766 174.664C301.805 174.664 301.844 174.672 301.88 174.687C301.916 174.703 301.949 174.725 301.977 174.753C302.031 174.81 302.062 174.886 302.062 174.964C302.062 175.043 302.031 175.119 301.977 175.176C301.95 175.21 301.916 175.237 301.877 175.256C301.838 175.274 301.795 175.284 301.752 175.284C301.706 175.287 301.66 175.281 301.617 175.265C301.573 175.25 301.533 175.226 301.5 175.194L301.554 175.176ZM319.383 174.168C319.361 174.136 319.345 174.1 319.336 174.062C319.327 174.024 319.327 173.984 319.333 173.946C319.34 173.908 319.354 173.871 319.375 173.838C319.396 173.805 319.423 173.776 319.455 173.754C319.518 173.708 319.597 173.688 319.675 173.7C319.753 173.712 319.822 173.754 319.869 173.817C319.916 173.882 319.935 173.962 319.924 174.041C319.912 174.12 319.87 174.192 319.806 174.24C319.753 174.275 319.69 174.294 319.626 174.294C319.569 174.307 319.509 174.304 319.453 174.285C319.397 174.266 319.348 174.232 319.311 174.186L319.383 174.168ZM302.625 173.997C302.597 173.969 302.575 173.936 302.56 173.9C302.544 173.864 302.537 173.825 302.537 173.785C302.537 173.746 302.544 173.707 302.56 173.671C302.575 173.635 302.597 173.602 302.625 173.574C302.653 173.546 302.686 173.524 302.722 173.508C302.758 173.493 302.797 173.485 302.836 173.485C302.876 173.485 302.915 173.493 302.951 173.508C302.987 173.524 303.02 173.546 303.048 173.574C303.076 173.602 303.098 173.635 303.113 173.671C303.129 173.707 303.136 173.746 303.136 173.785C303.136 173.825 303.129 173.864 303.113 173.9C303.098 173.936 303.076 173.969 303.048 173.997C302.991 174.048 302.918 174.077 302.841 174.078C302.791 174.091 302.739 174.092 302.689 174.081C302.639 174.07 302.593 174.047 302.553 174.015L302.625 173.997ZM320.706 173.286C320.685 173.252 320.671 173.214 320.666 173.174C320.66 173.135 320.662 173.095 320.672 173.056C320.682 173.017 320.7 172.981 320.724 172.949C320.749 172.918 320.779 172.892 320.814 172.872C320.848 172.853 320.886 172.841 320.925 172.836C320.964 172.832 321.003 172.835 321.041 172.846C321.079 172.857 321.114 172.875 321.144 172.9C321.175 172.924 321.2 172.955 321.219 172.989C321.258 173.057 321.269 173.138 321.249 173.214C321.228 173.29 321.179 173.354 321.111 173.394C321.061 173.407 321.008 173.407 320.958 173.394C320.901 173.413 320.84 173.415 320.782 173.399C320.724 173.383 320.673 173.35 320.634 173.304L320.706 173.286Z" fill="white"/>
<path d="M322.344 172.737C322.309 172.747 322.271 172.747 322.236 172.737C322.2 172.721 322.166 172.7 322.137 172.674C322.108 172.645 322.084 172.612 322.065 172.575C322.06 172.536 322.06 172.497 322.065 172.458C322.068 172.38 322.1 172.306 322.155 172.251C322.181 172.22 322.215 172.198 322.254 172.188C322.308 172.166 322.368 172.161 322.425 172.172C322.483 172.183 322.536 172.211 322.578 172.251C322.631 172.307 322.66 172.381 322.659 172.458C322.669 172.496 322.669 172.537 322.659 172.575C322.643 172.611 322.622 172.645 322.596 172.674C322.561 172.701 322.52 172.721 322.477 172.732C322.433 172.743 322.388 172.744 322.344 172.737Z" fill="white"/>
<path d="M293.4 216.792C292.077 219.159 292.626 226.755 294.885 229.986C308.25 230.607 326.943 222.21 332.379 223.758C333.477 221.013 331.542 219.843 331.479 217.836C331.416 215.829 331.182 213.534 328.491 214.596C325.8 215.658 307.305 218.619 293.4 216.792Z" fill="#177C27"/>
<path opacity="0.5" d="M293.709 216.465C292.386 218.832 292.935 226.428 295.194 229.659C308.559 230.28 327.252 221.883 332.688 223.431C333.786 220.686 331.851 219.516 331.788 217.509C331.725 215.502 331.491 213.207 328.8 214.269C326.109 215.331 307.614 218.292 293.709 216.465Z" fill="white"/>
<path d="M283.563 33.597C304.191 39.429 319.365 60.957 317.457 81.666C316.224 94.977 308.25 104.697 297.234 108.414C297.121 110.438 297.653 112.445 298.755 114.147C298.755 114.147 293.481 112.5 291.6 109.8C286.586 110.465 281.488 110.076 276.633 108.657C255.996 102.825 240.822 81.297 242.739 60.579C244.656 39.861 262.926 27.756 283.563 33.597Z" fill="#177326"/>
<path opacity="0.7" d="M283.563 33.597C304.191 39.429 319.365 60.957 317.457 81.666C316.224 94.977 308.25 104.697 297.234 108.414C297.121 110.438 297.653 112.445 298.755 114.147C298.755 114.147 293.481 112.5 291.6 109.8C286.586 110.465 281.488 110.076 276.633 108.657C255.996 102.825 240.822 81.297 242.739 60.579C244.656 39.861 262.926 27.756 283.563 33.597Z" fill="white"/>
<path d="M130.581 66.798C131.023 64.8678 131.872 63.054 133.07 61.4773C134.268 59.9007 135.788 58.5973 137.529 57.654C136.545 56.1821 136.027 54.4476 136.044 52.677C136.125 46.971 141.831 42.435 148.779 42.534C151.735 42.5571 154.61 43.5009 157.005 45.234C159.768 39.249 167.886 37.017 175.275 40.248C181.449 42.948 185.175 48.618 184.752 53.955C186.03 53.7386 187.328 53.6631 188.622 53.73C196.722 54.18 203.022 59.949 202.689 66.618C202.464 70.677 199.818 74.124 195.957 76.104C198.657 81.216 198.756 86.994 195.759 91.404C192.762 95.814 187.659 97.767 182.088 97.38C177.768 101.601 170.694 103.608 163.359 102.078C161.939 101.781 160.55 101.354 159.21 100.8C156.663 104.103 151.227 104.139 151.227 104.139C152.942 102.605 154.159 100.593 154.719 98.361C152.2 96.6348 150.132 94.3293 148.689 91.638C145.44 91.737 140.589 90.945 137.79 88.191C135.54 85.977 134.343 82.395 135.09 80.001C131.4 76.365 129.6 71.559 130.581 66.798Z" fill="#26B93E"/>
<path opacity="0.2" d="M130.265 67.0308C130.707 65.1006 131.555 63.2868 132.753 61.7101C133.951 60.1334 135.472 58.8301 137.213 57.8868C136.228 56.4149 135.711 54.6804 135.728 52.9098C135.809 47.2038 141.515 42.6678 148.463 42.7668C151.419 42.7899 154.294 43.7337 156.689 45.4668C159.452 39.4818 167.57 37.2498 174.959 40.4808C181.133 43.1808 184.859 48.8508 184.436 54.1878C185.714 53.9714 187.011 53.8959 188.306 53.9628C196.406 54.4128 202.706 60.1818 202.373 66.8508C202.148 70.9098 199.502 74.3568 195.641 76.3368C198.341 81.4488 198.44 87.2268 195.443 91.6368C192.446 96.0468 187.343 97.9998 181.772 97.6128C177.452 101.834 170.378 103.841 163.043 102.311C161.623 102.014 160.234 101.586 158.894 101.033C156.347 104.336 150.911 104.372 150.911 104.372C152.626 102.838 153.842 100.826 154.403 98.5938C151.884 96.8676 149.816 94.5621 148.373 91.8708C145.124 91.9698 140.273 91.1778 137.474 88.4238C135.224 86.2098 134.027 82.6278 134.774 80.2338C131.084 76.5978 129.284 71.7918 130.265 67.0308Z" fill="black"/>
<path d="M239.895 110.322L239.706 109.422C244.105 108.526 248.435 107.323 252.666 105.822L252.981 106.668C248.71 108.19 244.337 109.411 239.895 110.322Z" fill="#407BFF"/>
<path d="M229.545 112.131L229.419 111.231C231.129 110.988 232.839 110.727 234.477 110.439L234.63 111.339C232.983 111.6 231.3 111.888 229.545 112.131Z" fill="#407BFF"/>
<path d="M258.3 69.7861C258.211 68.2995 257.598 66.8926 256.569 65.8151C255.541 64.7375 254.165 64.0591 252.684 63.9001C231.57 61.6951 202.014 66.6001 190.224 68.8861C188.739 69.1705 187.404 69.976 186.46 71.1575C185.516 72.339 185.025 73.8187 185.076 75.3301C185.499 89.2801 189.126 98.4331 194.922 107.64C195.483 108.52 196.252 109.248 197.16 109.761C198.069 110.275 199.09 110.557 200.133 110.583C204.291 110.7 208.386 110.664 212.364 110.502C214.443 113.397 217.175 115.762 220.338 117.405C219.957 114.948 219.957 112.446 220.338 109.989C233.1 108.882 244.251 106.497 251.892 103.689C252.827 103.34 253.668 102.777 254.348 102.046C255.027 101.315 255.527 100.435 255.807 99.4771C258.741 89.6491 258.777 77.3011 258.3 69.7861Z" fill="#177326"/>
</svg>
