<svg width="1440" height="192" viewBox="0 0 1440 192" fill="none" xmlns="http://www.w3.org/2000/svg">
<g opacity="0.1">
<path fill-rule="evenodd" clip-rule="evenodd" d="M0 67.9797C0 67.9797 283.196 162.193 548.438 162.193C813.679 162.193 949.747 34.0489 1106.44 6.55419C1263.13 -20.9405 1440 67.9797 1440 67.9797V191.023H0V67.9797Z" fill="black"/>
<mask id="mask0_100_516" style="mask-type:luminance" maskUnits="userSpaceOnUse" x="0" y="1" width="1440" height="191">
<path fill-rule="evenodd" clip-rule="evenodd" d="M0 67.9797C0 67.9797 283.196 162.193 548.438 162.193C813.679 162.193 949.747 34.0489 1106.44 6.55419C1263.13 -20.9405 1440 67.9797 1440 67.9797V191.023H0V67.9797Z" fill="white"/>
</mask>
<g mask="url(#mask0_100_516)">
<ellipse cx="796.5" cy="305.043" rx="253.5" ry="233.071" fill="#673AB7"/>
<ellipse cx="538.5" cy="201.076" rx="494.5" ry="328.531" fill="url(#paint0_linear_100_516)"/>
<ellipse cx="1114.5" cy="12.1864" rx="255.5" ry="318.689" fill="url(#paint1_linear_100_516)"/>
<ellipse cx="1440" cy="129.936" rx="210" ry="140.766" fill="#1EE9B8"/>
<ellipse cx="264.5" cy="166.446" rx="494.5" ry="328.531" fill="#B2EBF2"/>
<ellipse cx="169" cy="85.95" rx="252" ry="217.718" fill="url(#paint2_linear_100_516)"/>
<ellipse cy="-32.2752" rx="217" ry="146.062" fill="#D1C4E9"/>
</g>
</g>
<defs>
<linearGradient id="paint0_linear_100_516" x1="766.225" y1="-594.342" x2="-606.354" y2="331.721" gradientUnits="userSpaceOnUse">
<stop stop-color="#00BCD4"/>
<stop offset="1" stop-color="#673AB7"/>
</linearGradient>
<linearGradient id="paint1_linear_100_516" x1="1103.19" y1="-768.169" x2="419.717" y2="-77.5666" gradientUnits="userSpaceOnUse">
<stop stop-color="#4CB73A"/>
<stop offset="1" stop-color="#D1C4E9"/>
<stop offset="1" stop-color="#0D6316"/>
</linearGradient>
<linearGradient id="paint2_linear_100_516" x1="56.9271" y1="-233.933" x2="-130.318" y2="167.589" gradientUnits="userSpaceOnUse">
<stop stop-color="#1EE94B"/>
<stop offset="1" stop-color="#13D555"/>
</linearGradient>
</defs>
</svg>
