<svg width="555" height="541" viewBox="0 0 555 541" fill="none" xmlns="http://www.w3.org/2000/svg">
<g opacity="0.1">
<ellipse cx="277.5" cy="270.5" rx="277.5" ry="270.5" fill="#00BCD4"/>
<mask id="mask0_7_200" style="mask-type:luminance" maskUnits="userSpaceOnUse" x="0" y="0" width="555" height="541">
<ellipse cx="277.5" cy="270.5" rx="277.5" ry="270.5" fill="white"/>
</mask>
<g mask="url(#mask0_7_200)">
<ellipse cx="362.78" cy="332.474" rx="153.781" ry="213.474" transform="rotate(149 362.78 332.474)" fill="url(#paint0_linear_7_200)"/>
<ellipse cx="213.497" cy="431.319" rx="175.195" ry="371.207" transform="rotate(149 213.497 431.319)" fill="#71B45A"/>
<ellipse cx="302.574" cy="69.9499" rx="184.574" ry="279.95" transform="rotate(149 302.574 69.9499)" fill="url(#paint1_linear_7_200)"/>
<ellipse cx="97.9428" cy="547.156" rx="174.365" ry="369.546" transform="rotate(149 97.9428 547.156)" fill="url(#paint2_linear_7_200)"/>
<ellipse cx="9.91273" cy="553.845" rx="168.045" ry="229.936" transform="rotate(149 9.91273 553.845)" fill="#006064"/>
<ellipse cx="-138.13" cy="565.805" rx="98.869" ry="159.45" transform="rotate(149 -138.13 565.805)" fill="#B2EBF2"/>
<ellipse cx="418.129" cy="674.651" rx="167.071" ry="125.46" transform="rotate(149 418.129 674.651)" fill="#F8BBD0"/>
</g>
</g>
<defs>
<linearGradient id="paint0_linear_7_200" x1="276.143" y1="-1.78196" x2="52.6482" y2="338.287" gradientUnits="userSpaceOnUse">
<stop stop-color="#00BCD4"/>
<stop offset="1" stop-color="#673AB7"/>
</linearGradient>
<linearGradient id="paint1_linear_7_200" x1="301.171" y1="-324.054" x2="10.5092" y2="-108.224" gradientUnits="userSpaceOnUse">
<stop stop-color="#673AB7"/>
<stop offset="1" stop-color="#D1C4E9"/>
<stop offset="1" stop-color="#D1C4E9"/>
</linearGradient>
<linearGradient id="paint2_linear_7_200" x1="17.0258" y1="226.373" x2="-312.252" y2="462.718" gradientUnits="userSpaceOnUse">
<stop stop-color="#D1C4E9"/>
<stop stop-color="#D1C4E9"/>
<stop offset="1" stop-color="#673AB7"/>
</linearGradient>
</defs>
</svg>
