<svg width="43" height="28" viewBox="0 0 43 28" fill="none" xmlns="http://www.w3.org/2000/svg">
<path fill-rule="evenodd" clip-rule="evenodd" d="M30.4456 21.6611C29.1498 21.2042 27.7485 21.175 26.4527 20.718C26.0592 20.5819 25.2817 20.4167 25.1186 19.9597C24.965 19.5125 24.965 18.9875 24.9362 18.5208C24.917 18.1514 24.9074 17.7819 24.9074 17.4125C24.9074 17.1694 25.5217 16.6542 25.6561 16.4305C26.1744 15.5555 26.2223 14.3792 26.3183 13.3875C27.1534 13.6208 27.259 12.0555 27.4029 11.5792C27.5085 11.2486 28.1516 8.9736 27.1534 9.28471C27.3933 8.85694 27.4893 8.33194 27.5565 7.85555C27.7485 6.6111 27.8252 5.24999 27.4509 4.03471C26.6735 1.50694 24.2835 0.0874926 21.7592 0.00971481C19.1965 -0.0777852 16.6241 1.16666 15.6643 3.68471C15.2036 4.90971 15.242 6.24166 15.3956 7.52499C15.4627 8.10833 15.5587 8.75972 15.8467 9.28471C14.9157 9.00277 15.4148 11.0055 15.5203 11.3555C15.6739 11.8514 15.8083 13.6305 16.6817 13.3875C16.7585 14.175 16.8449 14.9819 17.0561 15.75C17.2 16.2653 17.4976 16.7028 17.8431 17.1014C18.0159 17.2958 18.1023 17.3153 18.0927 17.568C18.0831 18.3264 18.1023 19.143 17.9103 19.8819C17.7183 20.6208 16.1154 20.9319 15.4723 21.068C13.7447 21.4278 12.1514 21.593 10.7116 22.6819C9.03195 23.9361 8.15851 25.8903 8.15851 28C16.1538 28 24.1491 28 32.1444 28C33.0467 28 33.9393 28 34.8415 28C34.8415 25.1319 33.1331 22.6042 30.4456 21.6611C31.5302 22.0403 29.3706 21.2819 30.4456 21.6611ZM11.0476 24.4611C11.5851 23.8875 12.2665 23.3819 13.0056 23.1C14.0134 22.7111 15.1556 22.7305 16.2018 22.4583C17.0657 22.2347 18.1407 21.8847 18.8125 21.2528C19.4268 20.6694 19.494 19.775 19.5516 18.968C19.5996 18.2875 19.59 17.6167 19.59 16.9361C19.59 16.4597 19.0429 16.1875 18.7741 15.8083C18.3422 15.2153 18.323 14.3305 18.2366 13.6208C18.1982 13.3097 18.1886 12.9111 17.9295 12.6972C17.6415 12.4639 17.4304 12.3375 17.2864 11.968C17.0944 11.4625 17.0273 10.918 16.8737 10.393C16.7777 10.0528 17.1136 9.73194 17.248 9.44999C17.4976 8.93472 17.0657 8.13749 16.9793 7.60277C16.7105 6.00833 16.7201 4.26805 17.8527 3.00416C20.1275 0.456937 25.3393 1.26388 26.088 4.84166C26.3183 5.95971 26.1744 7.26249 25.8672 8.35138C25.7328 8.81805 25.5793 9.15833 25.848 9.61527C26.2511 10.2764 26.0784 10.7042 25.8864 11.443C25.7328 12.0555 25.5409 12.3278 25.0802 12.7069C24.6962 13.018 24.7538 13.7958 24.6866 14.243C24.6098 14.7875 24.5619 15.3611 24.2355 15.818C24.1107 15.993 23.4293 16.5375 23.4293 16.7222C23.4293 17.7917 23.3813 18.8805 23.5636 19.9403C23.8132 21.4472 25.061 21.8069 26.3087 22.3222C27.5757 22.818 29.0442 22.6333 30.2728 23.2458C31.5398 23.8778 32.7587 25.0347 33.1235 26.4639C25.5121 26.4639 17.9007 26.4639 10.2893 26.4639C10.1549 26.4639 10.0206 26.4639 9.88619 26.4639C10.0686 25.6569 10.5101 25.0444 11.0476 24.4611C11.9306 23.518 10.4813 25.0736 11.0476 24.4611Z" fill="black" fill-opacity="0.87"/>
<path fill-rule="evenodd" clip-rule="evenodd" d="M10.7596 20.4167C11.4315 20.0764 12.1609 19.9986 12.9 19.9208C13.1687 19.8917 13.2935 19.7069 13.092 19.4444C12.708 18.9486 11.3835 18.8514 10.8268 18.6278C10.4813 18.4917 10.3853 18.3653 10.3565 17.9764C10.3469 17.8014 10.2509 17.0236 10.3853 16.8972C10.4813 16.8 11.0859 16.8389 11.2203 16.8194C11.7674 16.7514 12.3241 16.6347 12.8424 16.4305C13.0632 16.343 13.2743 16.2361 13.4663 16.1C13.6967 15.925 13.2935 15.4972 13.1879 15.2639C12.8616 14.5347 12.7176 13.7375 12.6696 12.9403C12.5737 11.375 12.8136 9.79999 12.5257 8.24443C12.0938 5.86249 10.2797 4.66666 7.96652 4.66666C6.53638 4.66666 5.12545 5.16249 4.32879 6.42638C3.44576 7.81666 3.49375 9.54721 3.54174 11.1319C3.57054 12.0361 3.60893 12.95 3.48415 13.8542C3.42656 14.243 3.34018 14.6222 3.2058 14.9917C3.10022 15.2736 2.56272 15.9736 2.77388 16.1194C3.57054 16.693 4.91429 16.8875 5.87411 16.8097C5.9029 17.2861 5.98929 17.8986 5.81652 18.3458C5.54777 19.0458 3.54174 19.2305 2.93705 19.4347C1.24777 20.0083 0 21.4375 0 23.3333C1.75647 23.3333 3.50335 23.3333 5.25982 23.3333C6.04688 23.3333 6.83393 23.3333 7.63058 23.3333C7.75536 23.3333 8.23527 22.4292 8.36964 22.2833C9.04152 21.525 9.86696 20.8736 10.7596 20.4167C11.6234 19.9792 9.35826 21.1361 10.7596 20.4167ZM6.79554 21.7778C5.23103 21.7778 3.66652 21.7778 2.10201 21.7778C2.78348 20.6305 4.49196 20.7083 5.61495 20.3C6.65156 19.9208 7.31384 19.2792 7.41942 18.1611C7.42902 18.0347 7.43862 15.3222 7.33304 15.3222C6.49799 15.293 5.62455 15.3125 4.78951 15.1861C5.45179 13.018 4.8183 10.7819 5.17344 8.59443C5.43259 7.00971 6.4308 6.13471 8.02411 6.13471C9.55022 6.13471 10.6828 6.85416 11.0092 8.40971C11.4699 10.6653 10.8172 12.9694 11.5275 15.2055C10.9996 15.3417 10.4429 15.3611 9.89576 15.3805C9.62701 15.3903 9.34866 15.4 9.07991 15.4097C8.90714 15.4194 8.96473 15.7208 8.95513 15.8667C8.85915 16.9264 8.47522 18.5986 9.31027 19.4542C8.38884 20.0375 7.39062 20.8444 6.79554 21.7778Z" fill="black" fill-opacity="0.87"/>
<path fill-rule="evenodd" clip-rule="evenodd" d="M35.3023 23.3333C37.865 23.3333 40.4373 23.3333 43 23.3333C43 21.4375 41.7427 19.9986 40.0534 19.4347C39.2759 19.1819 37.7786 19.1042 37.2219 18.4236C36.9436 18.0833 37.0971 17.218 37.1259 16.8097C37.5482 16.8486 38.009 16.7805 38.4409 16.7222C38.8344 16.6639 39.2183 16.5861 39.5927 16.45C39.7654 16.3819 39.9382 16.3139 40.1014 16.2167C40.4757 15.993 40.3029 15.9542 40.111 15.6236C39.0648 13.8444 39.5351 11.5889 39.4871 9.63471C39.4487 8.0111 39.0264 6.23193 37.5674 5.31804C36.2525 4.49165 34.304 4.46249 32.8931 5.04582C28.8235 6.6986 31.223 12.1625 29.8313 15.293C29.5913 15.818 29.2458 16.0028 29.8505 16.3139C30.1864 16.4889 30.5511 16.6055 30.9159 16.693C31.4726 16.8292 32.0485 16.9069 32.6244 16.9264C32.7203 16.9264 32.6531 18.1514 32.6244 18.2778C32.5188 18.7542 31.4918 18.8903 31.1078 18.9972C30.7143 19.1042 30.0616 19.1333 29.8697 19.5514C29.5817 20.1736 30.8199 20.018 31.127 20.0764C32.1156 20.2611 32.9891 20.8153 33.7569 21.4472C34.3232 21.9139 35.0911 22.575 35.3023 23.3333ZM35.2639 20.6986C34.7744 20.2417 34.2656 19.7944 33.6994 19.4347C34.544 18.5792 34.1505 16.9167 34.0545 15.8472C33.9969 15.2347 33.8625 15.3903 33.2578 15.3708C32.6819 15.3514 32.0293 15.3805 31.4822 15.1958C32.1732 13.0278 31.6069 10.8014 31.9621 8.59443C32.2308 6.93193 33.3538 6.11527 34.9855 6.11527C36.4636 6.11527 37.4811 6.86388 37.7882 8.35138C38.2585 10.5972 37.5386 12.9208 38.2201 15.1569C37.4043 15.2833 36.5596 15.2542 35.7342 15.2833C35.5326 15.293 35.5518 17.7236 35.571 17.9375C35.6382 19.075 36.1565 19.7653 37.2219 20.2028C38.3833 20.6792 40.1973 20.5528 40.9076 21.7486C40.015 21.7486 39.1319 21.7486 38.2393 21.7486C37.7018 21.7486 37.1643 21.7486 36.6172 21.7486C35.9357 21.7583 35.763 21.1555 35.2639 20.6986C35.6478 21.0486 34.784 20.2514 35.2639 20.6986Z" fill="black" fill-opacity="0.87"/>
</svg>
