<svg width="28" height="27" viewBox="0 0 28 27" fill="none" xmlns="http://www.w3.org/2000/svg">
<path fill-rule="evenodd" clip-rule="evenodd" d="M10.0588 21.0322L9.33545 21.7475L13.9813 26.3529L18.6272 21.7475L17.9038 21.0322L14.4927 24.4078V9.21725H13.47V24.4078L10.0588 21.0322Z" fill="black" fill-opacity="0.87"/>
<path fill-rule="evenodd" clip-rule="evenodd" d="M22.9051 7.42902C22.9051 7.35373 22.9176 7.28471 22.9176 7.20941C22.9176 3.2251 19.6187 0 15.6339 0C12.759 0 10.2833 1.68157 9.12339 4.10353C8.61826 3.85255 8.05702 3.70824 7.45212 3.70824C5.60624 3.70824 4.0784 5.1702 3.77906 6.92706C1.58396 7.68 0 9.6502 0 12.0973C0 15.178 2.50067 17.6941 5.58753 17.6941H11.2935V16.6902H5.63742C3.08686 16.6902 1.01024 14.6071 1.01024 12.0659C1.01024 10.0957 2.26993 8.45804 4.14076 7.81804L4.66459 7.64235L4.75813 7.09647C4.98263 5.76 6.1363 4.66196 7.49577 4.66196C7.92606 4.66196 8.35011 4.76235 8.73675 4.95686L9.57862 5.37725L9.98396 4.52392C11.0192 2.36549 13.233 0.972549 15.6214 0.972549C19.0699 0.972549 21.9136 3.65804 21.9136 7.09647C21.9136 7.91843 21.9011 8.35765 21.9011 8.35765L22.849 8.36392C25.1376 8.39529 26.9399 10.2463 26.9399 12.5302C26.9399 14.8078 25.0815 16.6776 22.7929 16.6902L22.5933 16.6965H16.5318V17.7004H22.8303C25.6365 17.7004 27.9376 15.3663 27.9376 12.549C27.9376 9.72549 25.7301 7.43529 22.9051 7.42902Z" fill="black" fill-opacity="0.87"/>
</svg>
