<svg width="28" height="28" viewBox="0 0 28 28" fill="none" xmlns="http://www.w3.org/2000/svg">
<path fill-rule="evenodd" clip-rule="evenodd" d="M27.6957 9.58854C27.3761 8.73322 26.8387 8.11474 26.1413 7.80033C25.8213 7.65632 25.4855 7.58333 25.1433 7.58333C23.6831 7.58333 22.1995 8.94446 21.4513 10.9706C20.5254 13.4804 21.0638 15.9388 22.7035 16.6889C23.0333 16.84 23.3864 16.9167 23.7531 16.9167C25.2403 16.9167 26.7519 15.6684 27.5142 13.8107C28.0903 12.4047 28.1581 10.8264 27.6957 9.58854ZM26.4114 13.2923C25.84 14.6703 24.7348 15.6328 23.7236 15.6328C23.5187 15.6328 23.3234 15.5913 23.1426 15.5093C22.1129 15.0431 21.8401 13.2446 22.5215 11.4149C23.0884 9.89697 24.1583 8.83691 25.1234 8.83691C25.3064 8.83691 25.4864 8.87578 25.6586 8.9527C26.1602 9.17634 26.4331 9.66087 26.5737 10.0279C26.9318 10.9617 26.8711 12.182 26.4114 13.2923Z" fill="black" fill-opacity="0.87"/>
<path fill-rule="evenodd" clip-rule="evenodd" d="M6.54873 10.9706C5.8006 8.94446 4.31697 7.58333 2.85681 7.58333C2.51461 7.58333 2.17868 7.65632 1.85865 7.80033C1.16121 8.11474 0.623882 8.73322 0.304288 9.58854C-0.158076 10.8264 -0.0902638 12.4047 0.485851 13.8107C1.24819 15.6684 2.75976 16.9167 4.24697 16.9167C4.61359 16.9167 4.96673 16.84 5.29653 16.6889C6.93628 15.9388 7.47462 13.4804 6.54873 10.9706ZM4.85742 15.5092C4.67666 15.5913 4.48117 15.6327 4.27642 15.6327C3.26522 15.6327 2.15994 14.6703 1.58857 13.2923C1.1289 12.182 1.06824 10.9616 1.42626 10.0277C1.56691 9.66072 1.83977 9.17619 2.34143 8.95256C2.51359 8.87563 2.69362 8.83677 2.87664 8.83677C3.84162 8.83677 4.91153 9.89683 5.47853 11.4147C6.15993 13.2446 5.88708 15.0431 4.85742 15.5092Z" fill="black" fill-opacity="0.87"/>
<path fill-rule="evenodd" clip-rule="evenodd" d="M9.79613 10.6897C9.93139 10.6956 10.0679 10.6918 10.2018 10.6786C10.9883 10.6014 11.6995 10.1978 12.2585 9.5114C13.1606 8.40372 13.411 6.66954 13.2211 4.88564C12.9307 2.13646 11.4821 0.0846563 9.53574 0C9.53574 0 9.25785 0.000583333 9.11647 0.0140729C8.2578 0.0989479 7.47723 0.545125 6.85919 1.30433C5.96297 2.40545 5.53225 4.04381 5.70689 5.68692C5.99389 8.40503 7.79011 10.6024 9.79613 10.6897ZM7.8055 2.02934C8.09155 1.68379 8.57185 1.2581 9.23613 1.19255C9.31947 1.18431 9.40296 1.18191 9.48433 1.18541C10.8119 1.24316 11.8074 2.88225 12.0318 5.00828C12.1882 6.47755 12.021 7.92896 11.3139 8.78383C10.9585 9.2139 10.5442 9.45496 10.083 9.50024C10.0042 9.50782 9.92497 9.50994 9.84753 9.50658C8.44338 9.44548 7.11943 7.67703 6.89638 5.5642C6.75288 4.21305 7.09281 2.89158 7.8055 2.02934Z" fill="black" fill-opacity="0.87"/>
<path fill-rule="evenodd" clip-rule="evenodd" d="M14 12.8333C9.33332 12.8333 4.66666 18.3804 4.66666 23.7072C4.66666 25.2967 5.46378 26.5751 6.24654 27.0991C7.21327 27.746 7.8946 28 9.31174 28C10.9956 28 11.45 27.411 12.2383 26.8913C12.8085 26.5156 13.3009 26.1909 14.0001 26.1909C14.6993 26.1909 15.1917 26.5156 15.7617 26.8913C16.55 27.411 17.0044 28 18.6883 28C20.1054 28 20.7867 27.746 21.7534 27.0991C22.5362 26.5751 23.3333 25.2967 23.3333 23.7072C23.3333 18.3804 18.6667 12.8333 14 12.8333ZM21.1431 26.0149C20.3437 26.5499 19.8769 26.7279 18.6883 26.7279C17.6511 26.7279 17.3303 26.4945 16.799 26.1074C16.6642 26.0094 16.5249 25.9079 16.3654 25.8028C15.7369 25.3885 15.0245 24.9188 14.0001 24.9188C12.9757 24.9188 12.2632 25.3885 11.6348 25.8027C11.4752 25.9078 11.3358 26.0094 11.2012 26.1074C10.6698 26.4945 10.3491 26.7279 9.31181 26.7279C8.12327 26.7279 7.65639 26.5499 6.85693 26.0149C6.44546 25.7396 5.83332 24.8978 5.83332 23.7072C5.83332 21.4995 6.80873 19.0237 8.4425 17.0847C9.23627 16.1426 10.1573 15.3639 11.1059 14.8327C12.0832 14.2856 13.057 14 14 14C14.9431 14 15.9168 14.2856 16.8941 14.8327C17.8428 15.3639 18.7637 16.1426 19.5574 17.0847C21.1912 19.0237 22.1667 21.4995 22.1667 23.7072C22.1667 24.8978 21.5545 25.7396 21.1431 26.0149Z" fill="black" fill-opacity="0.87"/>
<path fill-rule="evenodd" clip-rule="evenodd" d="M17.8121 10.6652C17.946 10.6784 18.0826 10.6821 18.2178 10.6762C20.2238 10.589 22.0201 8.39155 22.307 5.67358C22.4817 4.03047 22.0508 2.39203 21.1546 1.29099C20.5366 0.531785 19.7851 0.107701 18.9263 0.0228263C18.7849 0.00926379 18.4782 7.62939e-05 18.4782 7.62939e-05C16.5318 0.0847325 15.0831 2.12304 14.7928 4.87215C14.6029 6.65613 14.8533 8.39023 15.7553 9.49791C16.3144 10.1843 17.0256 10.5879 17.8121 10.6652ZM15.9823 4.99487C16.2066 2.86891 17.2021 1.22974 18.5297 1.17199C18.611 1.16849 18.6946 1.17083 18.7779 1.17914C19.4421 1.24462 19.9224 1.67031 20.2085 2.01593C20.9212 2.87817 21.2611 4.19964 21.1176 5.55086C20.8945 7.66376 19.5706 9.43214 18.1664 9.49324C18.089 9.4966 18.0099 9.49448 17.9309 9.4869C17.4698 9.44162 17.0554 9.20055 16.7 8.77049C15.9931 7.91554 15.8258 6.46414 15.9823 4.99487Z" fill="black" fill-opacity="0.87"/>
</svg>
