<svg width="340" height="298" viewBox="0 0 340 298" fill="none" xmlns="http://www.w3.org/2000/svg">
<g clip-path="url(#clip0_7_505)">
<path d="M3.80963 172.109C4.08273 170.674 4.36948 169.255 4.66989 167.853C12.1745 132.315 27.2901 95.6133 54.2361 70.5327C65.9109 59.6872 80.027 51.3985 95.7571 48.4129C114.961 44.7757 134.927 49.815 152.574 58.3099C170.221 66.8048 186.058 78.5328 202.411 89.304C212.971 96.2566 224.138 102.954 236.599 104.974C251.518 107.391 266.781 102.855 281.831 104.298C305.427 106.558 326.22 124.273 334.724 146.55C343.228 168.826 340.147 194.682 328.94 215.713C317.732 236.745 299.036 253.124 277.866 263.92C248.577 278.898 213.962 283.582 182.093 275.467C166.526 271.508 151.501 264.58 135.476 264.291C115.6 263.937 96.9696 273.834 77.307 276.572C58.8241 279.137 39.1123 274.922 24.4063 263.376C-2.86746 241.932 -2.09735 203.004 3.80963 172.109Z" fill="#177326"/>
<path opacity="0.7" d="M3.80963 172.109C4.08273 170.674 4.36948 169.255 4.66989 167.853C12.1745 132.315 27.2901 95.6133 54.2361 70.5327C65.9109 59.6872 80.027 51.3985 95.7571 48.4129C114.961 44.7757 134.927 49.815 152.574 58.3099C170.221 66.8048 186.058 78.5328 202.411 89.304C212.971 96.2566 224.138 102.954 236.599 104.974C251.518 107.391 266.781 102.855 281.831 104.298C305.427 106.558 326.22 124.273 334.724 146.55C343.228 168.826 340.147 194.682 328.94 215.713C317.732 236.745 299.036 253.124 277.866 263.92C248.577 278.898 213.962 283.582 182.093 275.467C166.526 271.508 151.501 264.58 135.476 264.291C115.6 263.937 96.9696 273.834 77.307 276.572C58.8241 279.137 39.1123 274.922 24.4063 263.376C-2.86746 241.932 -2.09735 203.004 3.80963 172.109Z" fill="white"/>
<path d="M61.2738 84.9492C63.9365 83.4812 65.149 84.7018 66.1157 83.4812C67.0825 82.2605 63.4531 79.0935 70.7201 75.9265C70.7201 75.9265 71.2034 69.0975 81.1331 68.8584C91.0627 68.6192 88.4001 75.679 91.0627 77.3863C93.7254 79.0935 94.4545 76.4131 97.1172 78.1203C99.7798 79.8275 98.5673 83.242 100.747 83.7286C102.926 84.2152 105.834 81.5348 108.497 83.242C111.16 84.9492 111.16 86.409 112.372 86.409C113.585 86.409 116.01 85.4358 117.46 86.409C118.91 87.3822 120.606 88.6029 120.606 88.6029H59.3321C59.3321 88.6029 58.6111 86.3678 61.2738 84.9492Z" fill="white"/>
<path opacity="0.5" d="M61.2738 84.9492C63.9365 83.4812 65.149 84.7018 66.1157 83.4812C67.0825 82.2605 63.4531 79.0935 70.7201 75.9265C70.7201 75.9265 71.2034 69.0975 81.1331 68.8584C91.0627 68.6192 88.4001 75.679 91.0627 77.3863C93.7254 79.0935 94.4545 76.4131 97.1172 78.1203C99.7798 79.8275 98.5673 83.242 100.747 83.7286C102.926 84.2152 105.834 81.5348 108.497 83.242C111.16 84.9492 111.16 86.409 112.372 86.409C113.585 86.409 116.01 85.4358 117.46 86.409C118.91 87.3822 120.606 88.6029 120.606 88.6029H59.3321C59.3321 88.6029 58.6111 86.3678 61.2738 84.9492Z" fill="white"/>
<path d="M165.043 246.6C167.714 245.132 168.919 246.353 169.894 245.132C170.868 243.912 167.231 240.745 174.49 237.577C174.49 237.577 174.973 230.749 184.903 230.509C194.832 230.27 192.17 237.33 194.832 239.037C197.495 240.744 198.224 238.064 200.887 239.771C203.549 241.479 202.345 244.893 204.524 245.38C206.704 245.866 209.612 243.186 212.275 244.893C214.937 246.6 214.937 248.06 216.15 248.06C217.362 248.06 219.779 247.087 221.238 248.06C222.696 249.033 224.384 250.254 224.384 250.254H163.11C163.11 250.254 162.381 248.019 165.043 246.6Z" fill="white"/>
<path opacity="0.5" d="M165.043 246.6C167.714 245.132 168.919 246.353 169.894 245.132C170.868 243.912 167.231 240.745 174.49 237.577C174.49 237.577 174.973 230.749 184.903 230.509C194.832 230.27 192.17 237.33 194.832 239.037C197.495 240.744 198.224 238.064 200.887 239.771C203.549 241.479 202.345 244.893 204.524 245.38C206.704 245.866 209.612 243.186 212.275 244.893C214.937 246.6 214.937 248.06 216.15 248.06C217.362 248.06 219.779 247.087 221.238 248.06C222.696 249.033 224.384 250.254 224.384 250.254H163.11C163.11 250.254 162.381 248.019 165.043 246.6Z" fill="white"/>
<path d="M214.552 219.384C218.722 217.099 220.615 219.004 222.131 217.099C223.646 215.194 217.969 210.229 229.332 205.272C229.332 205.272 230.086 194.592 245.627 194.212C261.169 193.833 256.991 204.893 261.194 207.565C265.397 210.237 266.494 206.039 270.665 208.703C274.835 211.367 272.942 216.72 276.35 217.478C279.759 218.237 284.306 214.047 288.476 216.72C292.646 219.392 292.646 221.668 294.538 221.668C296.431 221.668 300.224 220.142 302.494 221.668C304.763 223.194 307.409 225.099 307.409 225.099H211.554C211.554 225.099 210.39 221.701 214.552 219.384Z" fill="white"/>
<path opacity="0.5" d="M214.552 219.384C218.722 217.099 220.615 219.004 222.131 217.099C223.646 215.194 217.969 210.229 229.332 205.272C229.332 205.272 230.086 194.592 245.627 194.212C261.169 193.833 256.991 204.893 261.194 207.565C265.397 210.237 266.494 206.039 270.665 208.703C274.835 211.367 272.942 216.72 276.35 217.478C279.759 218.237 284.306 214.047 288.476 216.72C292.646 219.392 292.646 221.668 294.538 221.668C296.431 221.668 300.224 220.142 302.494 221.668C304.763 223.194 307.409 225.099 307.409 225.099H211.554C211.554 225.099 210.39 221.701 214.552 219.384Z" fill="white"/>
<path d="M170.803 0.470093C199.404 0.470093 222.663 21.4765 223.474 47.6623L246.013 60.0913L257.859 48.7592L274.966 74.9038L286.878 74.3924L280.766 98.2525L280.234 78.6152L271.803 80.2069L257.876 65.4522L243.661 76.7842L221.385 62.7635C214.962 82.9204 194.767 97.6504 170.819 97.6504C141.71 97.6504 118.107 75.8935 118.107 49.0561C118.107 22.2188 141.694 0.470093 170.803 0.470093Z" fill="#263238" stroke="#263238" stroke-linecap="round" stroke-linejoin="round"/>
<path d="M124.112 17.4681H219.198C221.835 17.4681 223.974 19.6209 223.974 22.2764V76.7429C223.974 79.3985 221.835 81.5512 219.198 81.5512H124.112C121.474 81.5512 119.336 79.3985 119.336 76.7429V22.2764C119.336 19.6209 121.474 17.4681 124.112 17.4681Z" fill="#177326" stroke="#263238" stroke-width="2" stroke-linecap="round" stroke-linejoin="round"/>
<path d="M167.477 47.9097L119.336 23.3899V22.2683C119.336 20.993 119.839 19.77 120.735 18.8683C121.631 17.9666 122.845 17.46 124.112 17.46H219.198C220.464 17.46 221.679 17.9666 222.575 18.8683C223.471 19.77 223.974 20.993 223.974 22.2683V23.5961L176.71 48.017C175.268 48.7225 173.683 49.0802 172.081 49.0615C170.478 49.0429 168.902 48.6486 167.477 47.9097Z" fill="white" stroke="#263238" stroke-width="2" stroke-linecap="round" stroke-linejoin="round"/>
<path d="M121.184 41.3397C115.329 40.3788 111.357 34.822 112.311 28.9282C113.266 23.0345 118.786 19.0356 124.64 19.9966C130.495 20.9575 134.467 26.5143 133.513 32.408C132.558 38.3018 127.038 42.3006 121.184 41.3397Z" fill="#263238"/>
<path d="M122.046 37.057C121.771 36.7188 121.634 36.2887 121.661 35.8528V26.228L119.776 27.3826C119.629 27.482 119.454 27.5337 119.277 27.5311C119.151 27.534 119.027 27.508 118.914 27.4551C118.8 27.4022 118.7 27.3238 118.621 27.2259C118.531 27.1334 118.46 27.0238 118.412 26.9035C118.364 26.7831 118.341 26.6545 118.343 26.5249C118.346 26.3541 118.394 26.1873 118.484 26.0422C118.573 25.897 118.7 25.7788 118.851 25.7001L122.283 23.663C122.529 23.5061 122.812 23.4178 123.103 23.4073C123.281 23.4023 123.458 23.4375 123.621 23.5102C123.784 23.583 123.929 23.6916 124.045 23.828C124.303 24.1675 124.431 24.589 124.405 25.0156V35.9188C124.426 36.3362 124.288 36.746 124.02 37.0652C123.897 37.2045 123.746 37.315 123.576 37.3891C123.406 37.4632 123.222 37.499 123.037 37.4941C122.849 37.5035 122.662 37.4689 122.49 37.393C122.318 37.3172 122.166 37.2021 122.046 37.057Z" fill="#92E3A9"/>
<path d="M223.253 173.824C223.253 173.824 190.892 222.897 183.108 223.722C175.325 224.546 150.747 198.979 150.747 198.979L157.711 197.33L180.905 213.115C180.905 213.115 200.723 188.62 218.141 169.898L223.253 173.824Z" fill="white" stroke="#263238" stroke-width="2" stroke-linecap="round" stroke-linejoin="round"/>
<path d="M217.494 159.177C217.494 159.177 211.005 159.457 211.283 162.303C211.562 165.148 211.283 172.818 212.979 174.245C214.675 175.672 217.215 176.233 217.78 173.42C218.346 170.608 217.494 159.177 217.494 159.177Z" fill="white" stroke="#263238" stroke-width="2" stroke-linecap="round" stroke-linejoin="round"/>
<path d="M219.189 172.562C219.189 172.562 219.476 181.09 220.009 181.94C220.541 182.789 224.531 185.923 227.071 185.354C229.611 184.785 228.767 182.228 228.767 180.81V158.352H219.165L219.189 172.562Z" fill="#263238" stroke="#263238" stroke-linecap="round" stroke-linejoin="round"/>
<path d="M232.462 175.672C232.462 175.672 234.436 179.367 232.748 182.212C231.061 185.057 226.252 185.057 224.269 183.631C222.286 182.204 223.712 180.224 225.4 179.655C227.087 179.086 229.357 177.659 229.357 175.96C229.357 174.261 231.618 174.55 232.462 175.672Z" fill="white" stroke="#263238" stroke-width="2" stroke-linecap="round" stroke-linejoin="round"/>
<path d="M233.994 170.278C233.994 172.224 233.666 175.49 232.142 176.876C230.422 178.402 222.507 178.525 219.034 176.191C215.56 173.857 217.87 169.841 220.5 170.096C222.679 170.311 225.014 169.775 227.226 169.494C228.472 169.338 232.863 168.356 233.723 169.272C233.919 169.559 234.003 169.908 233.961 170.253L233.994 170.278Z" fill="white" stroke="#263238" stroke-width="2" stroke-linecap="round" stroke-linejoin="round"/>
<path d="M234.969 163.234C235.239 165.197 235.362 168.513 233.764 169.948C231.954 171.597 222.573 172.059 218.141 169.882C213.708 167.705 215.814 163.523 218.96 163.663C221.573 163.771 224.269 163.111 226.841 162.723C228.292 162.509 233.396 161.313 234.518 162.195C234.782 162.455 234.938 162.806 234.952 163.177L234.969 163.234Z" fill="white" stroke="#263238" stroke-width="2" stroke-linecap="round" stroke-linejoin="round"/>
<path d="M234.42 153.519C235.116 155.375 235.968 158.583 234.723 160.34C233.306 162.327 224.269 164.884 219.476 163.746C214.683 162.608 215.798 158.063 218.911 157.494C221.483 157.024 223.966 155.779 226.391 154.83C227.759 154.294 232.437 152.001 233.764 152.603C234.07 152.789 234.295 153.084 234.395 153.428L234.42 153.519Z" fill="white" stroke="#263238" stroke-width="2" stroke-linecap="round" stroke-linejoin="round"/>
<path d="M159.292 296.052L133.485 198.93H124.751L152.148 296.852" fill="#263238"/>
<path d="M159.292 296.052L133.485 198.93H124.751L152.148 296.852" stroke="#263238" stroke-linecap="round" stroke-linejoin="round"/>
<path d="M142.202 286.766L117.206 198.534L124.751 198.93L152.148 296.852" fill="white"/>
<path d="M142.202 286.766L117.206 198.534L124.751 198.93L152.148 296.852" stroke="#263238" stroke-width="2" stroke-linecap="round" stroke-linejoin="round"/>
<path d="M144.602 295.252L143.447 291.178" stroke="#263238" stroke-width="2" stroke-linecap="round" stroke-linejoin="round"/>
<path d="M176.554 221.742C176.554 221.742 173.728 226.006 170.336 226.575C166.944 227.144 131.084 198.715 131.084 198.715L145.774 200.414L176.554 221.742Z" fill="white" stroke="#263238" stroke-width="2" stroke-linecap="round" stroke-linejoin="round"/>
<path d="M198.988 177.089C198.988 177.089 192.237 120.734 177.146 101.146C160.654 79.7022 127.514 97.1539 134.265 131.521C139.443 157.913 154.517 205.064 154.517 205.064L198.988 177.089Z" fill="#2E963F" stroke="#263238" stroke-width="2" stroke-linecap="round" stroke-linejoin="round"/>
<path d="M150.878 93.0153L62.6583 121.057C59.7701 121.96 57.1287 123.524 54.9407 125.626C49.3778 131.02 41.0786 142.624 48.0506 159.738C53.6957 173.202 61.3241 185.733 70.679 196.909L154.843 204.126L137.77 137.774C137.77 137.774 129.839 108.603 150.878 93.0153Z" fill="white"/>
<mask id="mask0_7_505" style="mask-type:luminance" maskUnits="userSpaceOnUse" x="45" y="93" width="110" height="112">
<path d="M150.878 93.0153L62.6583 121.057C59.7701 121.96 57.1287 123.524 54.9407 125.626C49.3778 131.02 41.0786 142.624 48.0506 159.738C53.6957 173.202 61.3241 185.733 70.679 196.909L154.843 204.126L137.77 137.774C137.77 137.774 129.839 108.603 150.878 93.0153Z" fill="white"/>
</mask>
<g mask="url(#mask0_7_505)">
<path d="M109.513 171.078C130.732 181.09 142.079 179.325 147.724 176.439L154.843 204.126L70.6709 196.934C61.3159 185.758 53.6875 173.227 48.0424 159.762C47.1257 157.533 46.4287 155.218 45.9615 152.851C66.4188 148.001 82.6405 158.402 109.513 171.078Z" fill="#177326"/>
<path opacity="0.5" d="M109.513 171.078C130.732 181.09 142.079 179.325 147.724 176.439L154.843 204.126L70.6709 196.934C61.3159 185.758 53.6875 173.227 48.0424 159.762C47.1257 157.533 46.4287 155.218 45.9615 152.851C66.4188 148.001 82.6405 158.402 109.513 171.078Z" fill="white"/>
</g>
<path d="M150.878 93.0153L62.6583 121.057C59.7702 121.96 57.1287 123.524 54.9407 125.626C49.3778 131.02 41.0786 142.624 48.0506 159.738C53.6957 173.202 61.3241 185.733 70.679 196.909L154.843 204.126L137.77 137.774C137.77 137.774 129.839 108.603 150.878 93.0153Z" stroke="#263238" stroke-width="2" stroke-linecap="round" stroke-linejoin="round"/>
<path d="M101.295 101.378L115.108 144.777C117.46 145.164 119.754 147.119 120.892 149.997C122.466 153.973 121.245 158.204 118.164 159.441C115.084 160.678 111.307 158.451 109.734 154.492C108.439 151.193 109.038 147.779 111.012 145.973L101.295 112.554L87.7445 117.205L84.0414 107.597L101.295 101.378Z" fill="#263238" stroke="#263238" stroke-linecap="round" stroke-linejoin="round"/>
<path d="M185.706 139.828C185.706 139.828 179.545 146.657 179.233 150.063C178.922 153.469 184.468 162.435 184.468 162.435C184.468 162.435 173.072 169.569 162.291 164.604C151.509 159.639 146.274 138.558 146.274 138.558C146.274 138.558 159.21 144.76 164.142 144.76C169.074 144.76 185.706 139.828 185.706 139.828Z" fill="#263238" stroke="#263238" stroke-linecap="round" stroke-linejoin="round"/>
<path d="M162.291 164.637C159.317 163.268 156.769 160.67 154.63 157.634C154.783 156.979 155.122 156.384 155.607 155.921C156.092 155.458 156.701 155.147 157.359 155.028C163.831 153.783 170.606 160.917 170.606 160.917C171.213 162.674 171.583 164.504 171.704 166.36C168.474 166.56 165.244 165.968 162.291 164.637Z" fill="#92E3A9" stroke="#263238" stroke-linecap="round" stroke-linejoin="round"/>
<path d="M171.229 159.061C174.7 158.926 178.094 157.984 181.142 156.307C182.641 159.49 184.477 162.468 184.477 162.468C184.477 162.468 173.08 169.602 162.299 164.637C159.389 163.138 156.899 160.929 155.056 158.212C157.58 158.492 165.805 159.317 171.229 159.061Z" fill="white" stroke="#263238" stroke-linecap="round" stroke-linejoin="round"/>
<path d="M164.142 144.793C169.058 144.793 185.706 139.845 185.706 139.845C183.69 142.096 181.89 144.534 180.331 147.127C176.235 148.777 169.033 151.325 163.216 151.325C158.212 151.278 153.322 149.812 149.108 147.094C147.989 144.31 147.042 141.46 146.274 138.558C146.274 138.558 159.21 144.793 164.142 144.793Z" fill="white" stroke="#263238" stroke-linecap="round" stroke-linejoin="round"/>
<path d="M165.371 130.525C165.371 130.525 163.52 124.018 158.284 123.391C153.049 122.764 151.509 126.492 151.509 126.492C151.509 126.492 161.398 126.492 165.371 130.525Z" fill="#263238"/>
<path d="M150.28 136.727L142.579 139.523" stroke="#263238" stroke-linecap="round" stroke-linejoin="round"/>
<path d="M174.023 124.29C174.408 126.475 175.399 128.133 176.243 127.985C177.087 127.836 177.439 125.939 177.062 123.745C176.685 121.552 175.678 119.894 174.842 120.042C174.006 120.191 173.629 122.063 174.023 124.29Z" fill="#263238"/>
<path d="M164.142 122.772C164.142 122.772 164.445 119.053 156.441 119.053C148.437 119.053 146.888 118.121 149.969 114.104C153.049 110.088 165.985 112.232 164.142 122.772Z" fill="#263238"/>
<path d="M167.223 111.613C167.223 111.613 167.837 106.335 172.761 106.335C177.685 106.335 180.47 112.232 180.773 110.368C181.077 108.504 179.233 101.997 172.458 101.378C165.682 100.76 167.223 111.613 167.223 111.613Z" fill="#263238"/>
<path d="M132.461 107.308C131.14 110.648 130.338 114.172 130.085 117.758C128.119 140.381 148.109 202.047 148.109 202.047" stroke="#263238" stroke-linecap="round" stroke-linejoin="round"/>
<path d="M140.203 98.236C138.421 99.0559 136.866 100.302 135.672 101.865" stroke="#263238" stroke-linecap="round" stroke-linejoin="round"/>
<path d="M70.6052 191.177C72.5551 194.13 73.8823 196.126 73.8823 196.126" stroke="#263238" stroke-linecap="round" stroke-linejoin="round"/>
<path d="M67.4265 120.587C67.4265 120.587 52.5321 129.073 50.5658 141.519C48.5996 153.964 53.3759 160.488 56.1861 167.259C57.8246 171.144 63.3711 180.043 67.8362 186.938" stroke="#263238" stroke-linecap="round" stroke-linejoin="round"/>
<path d="M183.715 168.793C183.715 168.793 179.258 173.272 169.246 172.15C169.246 172.15 179.258 176.628 183.715 168.793Z" fill="#263238"/>
<path d="M273.688 165.173C273.688 165.173 247.61 151.408 200.01 159.845C197.821 160.231 195.57 159.728 193.749 158.447C191.927 157.165 190.685 155.209 190.293 153.008L189.605 149.14C189.275 147.283 189.57 145.369 190.444 143.701C191.319 142.033 192.722 140.708 194.431 139.935C207.072 134.22 236.484 118.368 251.944 88.9905L273.688 165.173Z" fill="#177326" stroke="#263238" stroke-width="2" stroke-linecap="round" stroke-linejoin="round"/>
<path d="M250.396 104.941C250.396 104.941 237.664 125.049 216.527 132.331" stroke="white" stroke-width="2" stroke-linecap="round" stroke-linejoin="round"/>
<path d="M194.431 139.935C201.827 136.567 208.928 132.578 215.658 128.009C213.438 135.152 212.799 145.948 221.983 157.321C214.614 157.7 207.275 158.543 200.01 159.845C197.821 160.231 195.57 159.728 193.749 158.447C191.927 157.165 190.685 155.209 190.293 153.008L189.605 149.139C189.275 147.283 189.57 145.369 190.444 143.701C191.319 142.033 192.722 140.708 194.431 139.935Z" fill="#263238" stroke="#263238" stroke-linecap="round" stroke-linejoin="round"/>
<path d="M252.798 130.283C245.372 106.371 246.775 84.6518 255.93 81.7705C265.086 78.8893 278.527 95.9374 285.953 119.849C293.378 143.76 291.976 165.479 282.82 168.361C273.665 171.242 260.223 154.194 252.798 130.283Z" fill="#263238" stroke="#263238" stroke-linecap="round" stroke-linejoin="round"/>
<path d="M256.498 129.123C249.817 107.611 250.623 88.2152 258.297 85.8001C265.972 83.385 277.608 98.8655 284.288 120.377C290.968 141.888 290.163 161.284 282.488 163.7C274.814 166.115 263.178 150.634 256.498 129.123Z" fill="white" stroke="#263238" stroke-linecap="round" stroke-linejoin="round"/>
<path d="M253.411 116.809L261.03 116.405L266.765 136.051L260.71 140.447C259.108 136.757 257.708 132.983 256.516 129.139C255.247 125.092 254.21 120.976 253.411 116.809Z" fill="#263238" stroke="#263238" stroke-linecap="round" stroke-linejoin="round"/>
<path d="M260.596 127.193C262.169 132.62 264.913 136.587 266.732 136.051C268.551 135.515 268.739 130.69 267.166 125.263C265.593 119.836 262.841 115.869 261.03 116.405C259.219 116.941 259.023 121.774 260.596 127.193Z" fill="white" stroke="#263238" stroke-linecap="round" stroke-linejoin="round"/>
<path d="M173.441 225.437C177.677 223.449 212.414 161.189 214.405 157.808C216.396 154.426 215.814 149.56 213.839 145.016C211.865 140.471 211.865 131.935 213.02 130.228C214.175 128.521 217.633 126.78 217.633 126.78C217.633 126.78 216.969 125.956 215.56 124.265C214.151 122.574 210.759 123.696 210.759 123.696C208.219 121.7 205.95 124.95 205.95 124.95C203.123 123.242 201.722 126.533 201.722 126.533C200.73 126.589 199.764 126.871 198.896 127.358C196.545 128.892 196.921 135.605 196.921 135.605C196.921 135.605 194.382 136.174 193.816 137.882C193.183 140.626 193.38 143.498 194.382 146.129C195.512 148.975 202.574 157.502 202.574 157.502L167.559 218.056" fill="white"/>
<path d="M173.441 225.437C177.677 223.449 212.414 161.189 214.405 157.808C216.396 154.426 215.814 149.56 213.839 145.016C211.865 140.471 211.865 131.935 213.02 130.228C214.175 128.521 217.633 126.78 217.633 126.78C217.633 126.78 216.969 125.956 215.56 124.265C214.151 122.574 210.759 123.696 210.759 123.696C208.219 121.7 205.95 124.95 205.95 124.95C203.123 123.242 201.722 126.533 201.722 126.533C200.73 126.589 199.764 126.871 198.896 127.358C196.545 128.892 196.921 135.605 196.921 135.605C196.921 135.605 194.382 136.174 193.816 137.882C193.183 140.626 193.38 143.498 194.382 146.129C195.512 148.975 202.574 157.502 202.574 157.502L167.559 218.056" stroke="#263238" stroke-width="2" stroke-linecap="round" stroke-linejoin="round"/>
<path d="M210.718 123.713C210.718 123.713 206.663 126.343 206.663 128.661C206.619 130.45 206.469 132.235 206.212 134.005" stroke="#263238" stroke-linecap="round" stroke-linejoin="round"/>
<path d="M205.909 124.925C205.909 124.925 203.451 127.523 203.328 129.049C203.205 130.574 202.869 135.308 202.869 135.308" stroke="#263238" stroke-linecap="round" stroke-linejoin="round"/>
<path d="M201.681 126.508C200.838 127.759 200.358 129.221 200.297 130.731C200.28 132.313 200.179 133.894 199.994 135.465" stroke="#263238" stroke-linecap="round" stroke-linejoin="round"/>
<path d="M196.88 135.605C196.88 135.605 195.742 142.946 196.2 144.48" stroke="#263238" stroke-linecap="round" stroke-linejoin="round"/>
</g>
<defs>
<clipPath id="clip0_7_505">
<rect width="340" height="297.735" fill="white" transform="matrix(-1 0 0 1 340 0)"/>
</clipPath>
</defs>
</svg>
